<svg xmlns="http://www.w3.org/2000/svg" fill="none" viewBox="0 0 576 480">
  <defs/>
  <path fill="#FCDDD4" d="M334 438c60 33 192-18 192-145C526 88 339 53 229 53 33 53-40 275 194 293c208 16 13 75 140 145z"/>
  <mask id="a" width="576" height="480" x="0" y="0" maskUnits="userSpaceOnUse">
    <path fill="#F6A182" d="M334 438c60 33 192-18 192-145C526 88 339 53 229 53 33 53-40 275 194 293c208 16 12 75 140 145z"/>
  </mask>
  <g mask="url(#a)">
    <path stroke="url(#paint0_linear)" stroke-width="2" d="M59 311c21-28 77-81 132-76 69 7-62 136 0 136s91-158 136-158c44 0-50 117 0 124 49 7 91-165 145-167 55-2-56 141 33 141" opacity=".7"/>
    <path fill="#D88D6C" d="M367 480l-22-2 1-27 22 2-1 27z"/>
    <path fill="url(#paint1_linear)" d="M326 476s15-7 17-11c0 0 4-16 11-8 0 0 6 6 15 1l2 29h-65c2-4 3-9 20-11z"/>
    <path fill="#D88D6C" d="M461 476l-22 4-5-26 21-4 6 26z"/>
    <path fill="url(#paint2_linear)" d="M419 476s15-7 17-11c0 0-3-12 4-6 0 0 14 4 19-2l4 31-64-1c2-4 3-9 20-11z"/>
    <path fill="url(#paint3_linear)" d="M341 229s-3 109 0 234c0 0 10 10 30 3 0 0 0-139 5-194 0 0 25 105 56 196 0 0 21 4 29-8 0 0-42-147-49-231h-71z"/>
    <path fill="#402B2B" fill-opacity=".5" d="M341 229h71l2 20c-42 0-64-11-73-16v-4z" style="mix-blend-mode:multiply"/>
    <path fill="#402B2B" d="M-36 275c0 21 12 37 27 37h26c14 0 26-17 26-37s-12-37-26-37H-9c-15 0-27 17-27 37z"/>
    <path fill="#F48767" d="M170 275c0 20 12 37 27 37h26c14 0 26-17 26-37 0-21-12-37-26-37h-26c-15 0-27 16-27 37z"/>
    <path fill="#402B2B" d="M-37 272l105-1-12-7h-80l-13 8z"/>
    <path fill="#F36F49" d="M-137 211v68h86l27-15h80l25 15 175-1c2 0 5-2 5-5v-63l-398 1z"/>
    <path fill="#F48767" d="M50 227l137-1V102c0-5-4-9-9-9H50v134z"/>
    <path fill="#F06A5B" d="M-164 227H50V94h-205c-5 0-9 4-9 9v124z"/>
    <path fill="#F48767" d="M153 275c0 20-12 37-26 37h-26v-13c-10 0-18-11-18-24 0-14 8-25 18-25v-12h26c14 0 26 16 26 37z"/>
    <path fill="#F48767" d="M79 275c0 17 10 30 22 30 11 0 21-13 21-30s-10-31-22-30c-11 0-21 13-21 30z"/>
    <path fill="#F7A58D" d="M101 295c7 0 14-9 14-20s-7-20-15-20c-7 0-14 9-14 20s7 20 15 20zm0-32c4 0 8 5 8 12 0 6-4 12-8 12-5 0-9-6-9-12 0-7 4-12 9-12z"/>
    <path fill="#F7A58D" d="M101 312c14 0 26-17 26-37s-12-37-27-37c-14 0-26 17-26 37s12 37 27 37zm-1-67c12 0 22 13 22 30s-10 30-21 30c-12 0-22-13-22-30s10-30 21-30z"/>
    <path fill="#5B2929" d="M97 275c0-3 1-5 3-5s4 2 4 5-2 5-3 5c-3 0-4-2-4-5z"/>
    <path fill="#F69276" d="M278 174l1 1 6-1 1-1a404 404 0 00-1-32l-8-1-1 2 2 32z"/>
    <path fill="#F69276" d="M271 183h1l9-5c2-1 3-3 3-5v-34c0-2-1-3-2-3h-26l-1 1 1 1h26v35l-2 3-9 5-1 1 1 1z"/>
    <path fill="#F36F49" d="M68 226h31c16 0 20 8 30 28h31v-6l119-1 2-48v-2l-3-18c-6-23-22-48-29-57l-5-8c-5-6-8-9-14-9l-145 1c-3 0-5 2-6 4-13 46-11 81-11 116zm122-104l2-2h44c2 0 5 2 6 4 17 23 24 45 27 57l3 13c0 2-1 3-3 3h-11c-2 0-3 0-5-2l-22-21c-2-2-5-3-8-3h-27l-6-49z"/>
    <path fill="#F6977C" d="M168 180l3 13c0 4 3 6 6 6 43 1 79 2 104 0v-2l-3-18-110 1z"/>
    <path fill="#F36F49" d="M89 121l44-1c2 0 4 2 6 4 12 23 15 45 15 57v13c0 2-2 4-4 4h-10c-2 0-4-1-5-3l-18-21c-2-2-5-3-8-3H83l4-49 2-1z"/>
    <path fill="#F7A58D" d="M68 226h31c16 0 20 8 30 28h31v-6l119-1 2-48H177c-3 0-6-3-6-6l-3-13c-6-25-13-43-21-62-1-2 1-3 2-3l95-1c-5-6-8-9-14-9l-145 1c-3 0-5 2-6 4-13 46-11 81-11 116zm15-55l4-49 1-1 44-1c3 0 5 2 7 4 12 23 14 45 14 57v13c0 2-1 4-3 4h-11l-4-3-18-21c-2-2-5-3-8-3H83z"/>
    <path fill="#F58A6B" d="M74 223c0 2 1 3 3 3h22c16 0 20 8 30 28h31v-61c0-27-5-45-18-72-2-4-6-6-10-6H85l-2 1c-9 35-9 92-9 107zm9-52l4-49 1-1 44-1c3 0 5 2 7 4 12 23 14 45 14 57v13c0 2-1 4-3 4h-11l-4-3-18-21c-2-2-5-3-8-3H83z"/>
    <path fill="#F7A58D" d="M89 122h44c2 0 3 1 4 3 13 24 15 46 15 56v13l-2 2h-10l-4-2-17-21c-3-2-6-4-10-4H85l4-47zm0-1l-2 1-4 49h26c3 0 6 1 8 3l18 21c1 2 3 3 5 3h10c2 0 4-2 4-4v-13c0-12-3-34-15-57-2-2-4-4-6-4l-44 1z"/>
    <path fill="#F6977C" d="M160 222v26h47c0-7-2-14-4-20-1-2-3-4-5-4-11-2-24-2-38-2zm95 26h24l1-26-16 2c-2 0-4 2-5 4l-4 20zM160 274l109-1c8 0 14-6 14-13v-2c0-3-2-4-4-4H160v20z"/>
    <path fill="#F7A58D" d="M140 274h20v-20h-31l3 14c1 3 4 6 8 6z"/>
    <path fill="#F6977C" d="M92 202c4 0 13 1 13 4 0 4-8 5-14 5s-7-4-8-5c0-2 0-4 9-4z"/>
    <path fill="#F47B58" d="M92 206l-6-2 4-1c4 0 10 0 13 2l-4 1h-7zM101 208h1c-2 2-6 2-9 2l-6-1 3-1h11z"/>
    <path fill="#F58A6B" d="M160 248v6h119v-6H160z"/>
    <path fill="#F16036" d="M211 221v25h40v-26c0-3-3-5-6-5h-27c-4 0-7 3-7 6z" opacity=".2"/>
    <path fill="#fff" d="M265 245h8c2 0 4-1 4-4v-4c0-2-2-4-4-4h-8c-3 0-4 2-4 4v4c0 3 1 4 4 4zM185 246h9c2 0 4-2 4-4v-5c0-2-2-4-4-4h-9c-2 0-4 2-4 4v5c0 2 2 4 4 4z"/>
    <path fill="#F7A58D" d="M131 174l1 1h16l1-1a405 405 0 00-1-33h-17l-1 1c-1 10 0 21 1 32z"/>
    <path fill="#F69276" d="M152 183h1l-1-2-9-4-2-4v-34h6l1-1-1-1h-6l-3 2 1 34c0 3 1 5 3 6l9 4h1z"/>
    <path fill="#F8B4A0" d="M214 275h38v-11h-38v11z"/>
    <path fill="url(#paint4_linear)" d="M147 118c8 19 14 37 20 62h111c-6-24-22-48-29-57l-6-8h-94c-2 0-3 2-2 3z" opacity=".6"/>
    <path fill="#8C5E5E" d="M567 381H458v84h109v-84z"/>
    <path fill="#694646" d="M567 381h-39v84h39v-84z"/>
    <path fill="#A3774A" d="M554 381h-11v12h11v-12zM495 381h-10v12h10v-12z"/>
    <path fill="#F7A58D" d="M496 381H387v84h109v-84z"/>
    <path fill="#F58A6B" d="M496 381h-39v84h39v-84z"/>
    <path fill="#fff" d="M482 381h-10v12h10v-12zM424 381h-10v12h10v-12z"/>
    <path fill="#F7A58D" d="M523 300H415v84h108v-84z"/>
    <path fill="#F58A6B" d="M524 300h-40v84h40v-84z"/>
    <path fill="#fff" d="M510 300h-10v12h10v-12zM452 300h-10v12h10v-12z"/>
  </g>
  <path fill="#6B1912" d="M349 45h17l2-11s-7 4-8 2c-2-3-1-2-3-2-2 1-2-2-4 0-2 1-5 8-4 11z"/>
  <path fill="url(#paint5_linear)" d="M310 182l17-26 25 7c-1 8-17 31-25 42l-17-23z"/>
  <path fill="url(#paint6_linear)" d="M312 173c9-39 26-65 26-65 9 2 13 35 13 35-2 11-9 41-13 52l-26-22z"/>
  <path fill="url(#paint7_linear)" d="M338 107l3 122s25 13 74 4c0 0 1-30 7-57 0 0 13-51 7-66 0 0-41-25-91-3z"/>
  <path fill="url(#paint8_linear)" d="M376 87l-1 13s4 5 11 5c8 1 11-4 11-4l1-19c-9 4-18 6-22 5z"/>
  <path fill="url(#paint9_linear)" d="M377 82l-1 14c4 1 13-1 22-5v-9h-21z" style="mix-blend-mode:multiply"/>
  <path fill="#EE4D47" fill-opacity=".3" d="M426 139l-15 35c-3 11-3 54-23 62 0 0 21-1 28-3 0 0 0-32 7-57l6-38-3 1z" style="mix-blend-mode:multiply"/>
  <path fill="#402B2B" d="M412 50l-1 6-1 12-7 6-4 1s-6-2-5-4l5-31 7 4 6 6zM358 39l1 20 3-8 2-10-6-2z"/>
  <path fill="url(#paint10_linear)" d="M361 43l-3 26s-1 22 17 23 30-17 30-17 2 3 4-2c3-4 1-10-2-10-3-1-5 1-5 4l-1 5-3-1 2-21s-4-8-8-10c-5-1-9 5-9 5h-9l-7-2h-6z"/>
  <path fill="#893D43" d="M374 82c6 0 7-7 7-7l-14-1s-1 7 7 8z"/>
  <path fill="#FFFEFF" d="M380 78l1-3-14-1v2l13 2z"/>
  <path fill="#402B2B" d="M380 37V18c11 0 22 3 28 10 7 8 3 27 3 27s-8-1-10-4c-1-3-15-6-26-6-10 1-15 0-20-5l-3-4h28v1z"/>
  <path fill="url(#paint11_linear)" d="M412 48s-8-3-21-4c-22-9-31-7-31-7s0-8 2-13c2-4 15-11 27-10 11 1 23 9 25 17 1 6-2 17-2 17z"/>
  <path fill="url(#paint12_linear)" d="M399 45c-2-11-19-17-31-17s-21 10-22 17c0 3 2 3 3 1 0-2 1-10 12-9s10 11 16 12c5 1 11-3 22-4z"/>
  <path fill="#402B2B" d="M362 48v-2l10 1v2l-10-1zM393 52l-9-3v-2l10 4-1 1z"/>
  <path fill="#D87C60" d="M375 58l-2 5-4 3c-1 1 0 2 2 3l1 1s-3 0-5-2c-1-2 1-3 2-4l3-2 3-4z"/>
  <path fill="#402B2B" d="M383 60c0 2 1 4 3 4 1 0 3-2 3-4l-3-3c-2 0-3 1-3 3zM363 58c0 2 1 4 3 4 1 0 3-2 3-4s-2-3-3-3c-2 0-3 1-3 3z"/>
  <path fill="#fff" d="M274 138a3 3 0 115-3l10 18-5 3-10-18z"/>
  <path fill="#822626" d="M276 142l5-3 11 20-5 3-11-20z"/>
  <path fill="url(#paint13_linear)" d="M351 194c-3-5-2-8-1-10 2 2 7 5 7 8 1 3-1 7-1 8-1 0-3-2-5-6z"/>
  <path fill="#fff" d="M254 162c-1-3 1-6 5-6h61c2 0 4 1 5 3l23 78c1 3-2 6-5 6h-61c-3 0-5-1-5-3l-23-78z"/>
  <path fill="url(#paint14_linear)" d="M253 158c-1-3 1-6 4-6h62c2 0 4 2 5 4l23 87c1 3-2 6-5 6h-61c-3 0-5-1-5-3l-23-88z"/>
  <path fill="url(#paint15_linear)" fill-rule="evenodd" d="M416 192c14-19 15-78 15-78-12 2-18 14-21 22l-5 6-6 36-56 10c-3 0-13 1-19 5 0 0-3 2-1 4v6l1 3 3 3s-1 3 2 4c2 1 7 3 8 2l2-1 4-4-2-2 4-1 5-5 2-5c52 4 64-5 64-5z" clip-rule="evenodd"/>
  <path fill="url(#paint16_linear)" d="M401 141l-5 27-1 6-45 10c2 2 6 8 6 16 14 2 45 4 59-4 2-2 8-9 10-22 17-55 4-64 4-64-19 3-28 31-28 31z"/>
  <path fill="#FCDDD4" d="M243 321a65 65 0 00-23-37c-5-4-11-8-18-10l-2-1c-6-3-13-4-21-4h-1-1c-7 0-14 1-21 4l-2 1c-7 2-13 6-18 10l-2 2c-5 4-9 9-13 15l-1 2-6 18-1 2-1 12h132a65 65 0 00-1-14z"/>
  <path fill="#fff" d="M324 354a80 80 0 00-25-43l-3-2a82 82 0 00-51-19h-3c-9 0-18 2-26 5l-3 1c-8 3-15 7-22 13l-2 2c-7 5-12 12-16 19l-2 3c-4 6-6 14-8 21l-1 4-1 14h165l-1-14-1-4z"/>
  <path fill="#F37753" d="M344 338c-11 0-15-10-15-23s-3-24-18-25c-19-1-18 18-18 40 0 29-10 11-24 27-13 14 3 38 8 45h62l13-24c13-24 3-40-8-40z"/>
  <path fill="#fff" fill-rule="evenodd" d="M315 342h-3v43l-13-17-3 2 16 21v11h3v-32l13-17-2-1-11 13v-23z" clip-rule="evenodd" opacity=".2"/>
  <path fill="#FCDDD4" d="M264 402h90v50h-90z"/>
  <defs>
    <linearGradient id="paint0_linear" x1="282" x2="282" y1="217.6" y2="415.3" gradientUnits="userSpaceOnUse">
      <stop stop-color="#F37753"/>
      <stop offset="1" stop-color="#fff" stop-opacity="0"/>
    </linearGradient>
    <linearGradient id="paint1_linear" x1="338.4" x2="338.4" y1="460.6" y2="488.3" gradientUnits="userSpaceOnUse">
      <stop stop-color="#F4A984"/>
      <stop offset="1" stop-color="#EE4D47"/>
    </linearGradient>
    <linearGradient id="paint2_linear" x1="431.2" x2="431.2" y1="450.6" y2="488.4" gradientUnits="userSpaceOnUse">
      <stop stop-color="#F4A984"/>
      <stop offset="1" stop-color="#EE4D47"/>
    </linearGradient>
    <linearGradient id="paint3_linear" x1="400.2" x2="400.2" y1="160.7" y2="468.3" gradientUnits="userSpaceOnUse">
      <stop stop-color="#822626"/>
      <stop offset=".9" stop-color="#402B2B"/>
    </linearGradient>
    <linearGradient id="paint4_linear" x1="198.5" x2="251.5" y1="94" y2="221" gradientUnits="userSpaceOnUse">
      <stop stop-color="#F7A58D"/>
      <stop offset=".9" stop-color="#fff"/>
    </linearGradient>
    <linearGradient id="paint5_linear" x1="329.9" x2="329.9" y1="156" y2="204" gradientUnits="userSpaceOnUse">
      <stop stop-color="#FFB3B6"/>
      <stop offset="1" stop-color="#FFC8C1"/>
    </linearGradient>
    <linearGradient id="paint6_linear" x1="319.3" x2="346.7" y1="201.8" y2="116.3" gradientUnits="userSpaceOnUse">
      <stop stop-color="#F4A984"/>
      <stop offset="1" stop-color="#EE4D47"/>
    </linearGradient>
    <linearGradient id="paint7_linear" x1="384" x2="384" y1="45.8" y2="231.2" gradientUnits="userSpaceOnUse">
      <stop stop-color="#F4A984"/>
      <stop offset="1" stop-color="#EE4D47"/>
    </linearGradient>
    <linearGradient id="paint8_linear" x1="394.2" x2="375.7" y1="99.2" y2="107.2" gradientUnits="userSpaceOnUse">
      <stop stop-color="#FFB3B6"/>
      <stop offset="1" stop-color="#FFC8C1"/>
    </linearGradient>
    <linearGradient id="paint9_linear" x1="394.5" x2="376" y1="90.1" y2="97.9" gradientUnits="userSpaceOnUse">
      <stop stop-color="#FFB3B6" stop-opacity=".3"/>
      <stop offset="1" stop-color="#FFC8C1"/>
    </linearGradient>
    <linearGradient id="paint10_linear" x1="355.6" x2="359.6" y1="85.5" y2="50.3" gradientUnits="userSpaceOnUse">
      <stop stop-color="#FFB3B6"/>
      <stop offset="1" stop-color="#FFC8C1"/>
    </linearGradient>
    <linearGradient id="paint11_linear" x1="386.9" x2="386.9" y1="-4.8" y2="48.3" gradientUnits="userSpaceOnUse">
      <stop stop-color="#F4A984"/>
      <stop offset="1" stop-color="#EE4D47"/>
    </linearGradient>
    <linearGradient id="paint12_linear" x1="388.3" x2="388.3" y1="23" y2="78.2" gradientUnits="userSpaceOnUse">
      <stop stop-color="#F4A984"/>
      <stop offset="1" stop-color="#EE4D47"/>
    </linearGradient>
    <linearGradient id="paint13_linear" x1="356.8" x2="338" y1="185.2" y2="192.7" gradientUnits="userSpaceOnUse">
      <stop stop-color="#F4A984"/>
      <stop offset="1" stop-color="#EE4D47"/>
    </linearGradient>
    <linearGradient id="paint14_linear" x1="348" x2="170" y1="201" y2="235" gradientUnits="userSpaceOnUse">
      <stop stop-color="#F58A6B"/>
      <stop offset="1" stop-color="#F7A58D"/>
    </linearGradient>
    <linearGradient id="paint15_linear" x1="413.5" x2="319" y1="164.8" y2="196.4" gradientUnits="userSpaceOnUse">
      <stop stop-color="#FFB3B6"/>
      <stop offset="1" stop-color="#FFC8C1"/>
    </linearGradient>
    <linearGradient id="paint16_linear" x1="380.9" x2="436" y1="151.4" y2="188.6" gradientUnits="userSpaceOnUse">
      <stop stop-color="#F4A984"/>
      <stop offset="1" stop-color="#EE4D47"/>
    </linearGradient>
  </defs>
</svg>
