<svg xmlns="http://www.w3.org/2000/svg" fill="none" viewBox="0 0 490 210">
  <defs/>
  <path fill="#0F264C" d="M487 167a92 92 0 00-32-52 94 94 0 00-59-22h-3c-11 0-21 2-30 5l-3 2c-10 3-18 8-26 15l-3 2c-7 6-13 14-18 22l-2 3c-4 8-7 16-9 25l-1 4-1 16h189a92 92 0 00-2-20z"/>
  <path fill="#402B2B" d="M123 173c0 20 11 36 25 36h25c14 0 25-16 25-36 0-19-12-35-25-35h-25c-14 0-25 16-25 35z"/>
  <path fill="#F48767" d="M319 173c0 20 11 35 25 35h25c14 0 25-16 25-35s-11-35-25-35h-25c-14 0-25 16-25 35z"/>
  <path fill="#000" d="M0 121l8-17h22l1 65H0v-48z"/>
  <path fill="#402B2B" d="M121 170h101l-12-7h-76l-13 7z"/>
  <path fill="#F36F49" d="M26 113v64h82l26-14h76l24 14h166c3 0 5-3 5-5v-60l-379 1z"/>
  <path fill="#F48767" d="M204 127h131V9c0-5-4-9-9-9H204v127z"/>
  <path fill="#F06A5B" d="M1 128l203-1V0L9 1c-5 0-9 4-9 9l1 118z"/>
  <path fill="#F48767" d="M302 173c0 20-11 35-25 35h-25v-12c-9 0-16-10-16-23s7-23 16-23v-12h25c14 0 25 16 25 35z"/>
  <path fill="#F48767" d="M232 173c0 16 9 29 20 29 12 0 21-13 21-29s-9-29-21-29c-11 0-20 13-20 29z"/>
  <path fill="#F7A58D" d="M252 192c8 0 14-8 14-19 0-10-6-19-14-19-7 0-13 9-13 19 0 11 6 19 13 19zm0-30c5 0 8 5 8 11s-3 12-8 12c-4 0-8-5-8-12 0-6 4-11 8-11z"/>
  <path fill="#F7A58D" d="M252 208c14 0 25-15 25-35 0-19-11-35-25-35s-25 16-25 35c0 20 12 36 25 35zm0-64c12 0 21 13 21 29s-9 29-21 29c-11 0-20-13-20-29s9-29 20-29z"/>
  <path fill="#F48766" d="M249 173c0-2 1-5 3-5s4 3 4 5c0 3-2 5-4 5s-3-2-3-5z"/>
  <path fill="#000" d="M106 174c0 19-11 35-25 35H56v-12c-9 0-17-10-17-23s8-24 17-24v-12h25c14 0 25 16 25 36z"/>
  <path fill="#F69276" d="M421 77l1 1h6l1-2a386 386 0 00-1-31h-7l-1 1 1 31z"/>
  <path fill="#F69276" d="M415 86h1l8-5c2-1 4-3 4-5V43l-3-2h-24l-1 1 1 1h24v33c0 1 0 3-2 3l-9 5v1l1 1z"/>
  <path fill="#F36F49" d="M222 127h29c15 0 19 8 28 26h30v-6h114l1-47v-1c0-5 0-11-2-17-6-22-21-46-28-54l-5-8c-5-6-8-9-13-9l-138 1c-3 0-6 2-6 4-12 44-10 77-10 111zM338 27l1-1h42c3 0 5 1 7 3 16 23 22 43 25 55l3 12c0 2-1 3-3 3h-10c-2 0-4 0-5-2l-21-20c-2-2-5-3-8-3h-25l-6-47z"/>
  <path fill="#F6977C" d="M316 83l3 12c1 4 4 6 7 6h98v-2c0-5 0-11-2-17l-106 1z"/>
  <path fill="#F36F49" d="M241 26h42c2 0 5 1 6 3 12 23 14 43 14 55v12c0 2-1 4-3 4h-10l-5-2-17-20c-2-3-4-4-7-4h-25l4-47 1-1z"/>
  <path fill="#F7A58D" d="M222 127h29c15 0 19 8 28 26h30v-6h114l1-47c-24 2-58 2-98 1-3 0-6-3-7-6l-3-13c-5-23-11-40-19-58-1-2 0-4 2-4h90c-5-6-8-9-13-9l-138 1c-3 0-6 2-6 4-12 44-10 77-10 111zm14-53l4-47 1-1h42l6 3c11 23 14 43 14 55v12c0 2-2 4-3 4h-11l-4-2-17-20c-2-3-4-4-7-4h-25z"/>
  <path fill="#F58A6B" d="M227 124c0 2 1 3 3 3h21c15 0 19 8 28 26h30V95c0-26-5-42-17-68-2-4-6-7-10-7l-44 1-3 1c-8 33-8 88-8 102zm9-50l4-47 1-1h42l6 3c11 23 14 43 14 55v12c0 2-2 4-3 4h-11l-4-2-17-20c-2-3-4-4-7-4h-25z"/>
  <path fill="#F7A58D" d="M241 28h42l4 2c12 23 14 44 14 54v12l-1 2h-10l-4-2-16-20c-3-2-6-4-9-4h-24l4-44zm0-2l-1 1-4 47h25c3 0 5 1 7 4l17 20 5 2h10c2 0 3-2 3-4V84c0-12-2-32-14-55-1-2-4-3-6-3h-42z"/>
  <path fill="#F6977C" d="M309 123v24h45l-4-18c0-3-2-4-5-5l-36-1zm91 24h22l2-24-15 2c-3 0-5 2-6 4l-3 18zM309 172h104c8 0 13-6 13-13v-2c0-2-1-4-3-4H309v19z"/>
  <path fill="#F7A58D" d="M290 172h19v-19h-30l4 14c0 3 3 5 7 5z"/>
  <path fill="#F6977C" d="M244 104c4 0 13 1 13 4s-8 4-14 4-7-3-7-5c0-1-1-3 8-3z"/>
  <path fill="#F47B58" d="M244 107l-5-1 4-1 11 1-3 1h-7zM253 110h1l-8 1h-6l3-1h10z"/>
  <path fill="#F58A6B" d="M309 148v5h113l1-6-114 1z"/>
  <path fill="#F16036" d="M358 121v25h38v-25c0-3-3-5-6-5h-26c-3 0-6 3-6 5z" opacity=".2"/>
  <path fill="#fff" d="M409 145h8c2 0 4-1 4-4v-4c0-2-2-4-4-4h-8c-2 0-4 2-4 4v4c0 3 2 4 4 4zM333 145h8c2 0 4-1 4-3v-4c0-2-2-4-4-4h-8c-2 0-4 1-4 4v4c0 2 2 3 4 3z"/>
  <path fill="#F7A58D" d="M281 77l1 1h16l1-1a387 387 0 00-1-32h-17l-1 2 1 30z"/>
  <path fill="#F69276" d="M301 86l1-1v-1l-9-4-2-4V44h5l1-1-1-1h-5l-3 2 1 32c0 3 1 5 3 6l9 4z"/>
  <path fill="#F8B4A0" d="M361 174h36v-11h-36v11z"/>
  <path fill="url(#paint0_linear)" d="M297 24c8 18 13 35 19 59h106c-6-23-22-46-28-55l-5-7h-91c-1 0-2 1-1 3z" opacity=".6"/>
  <path fill="#000" d="M38 174c0 16 9 29 20 29 12 0 21-13 21-29s-10-29-21-29-20 13-20 29z"/>
  <path fill="#625C5C" d="M58 193c8 0 14-9 14-19 0-11-6-19-14-19-7 0-13 8-13 19 0 10 6 19 13 19zm0-31c4 0 8 5 8 12 0 6-4 11-8 11s-8-5-8-11c0-7 4-12 8-12z"/>
  <path fill="#424242" d="M58 209c14 0 25-16 25-35 0-20-11-36-25-36s-25 16-25 36c0 19 11 35 25 35zm0-64c11 0 21 13 21 29 0 15-9 29-21 29-11 0-20-13-20-29s9-29 20-29z"/>
  <path fill="#8B8282" d="M55 174c0-3 1-5 3-5s3 2 4 5c0 2-2 5-4 5s-3-3-3-5z"/>
  <path fill="#FCDDD4" d="M233 189a91 91 0 00-29-49l-3-3a92 92 0 00-57-21h-4c-10 0-20 2-29 5l-3 1c-9 4-18 9-25 15l-3 3c-7 6-13 13-18 21l-2 3c-4 8-7 16-9 25l-1 4-1 16h186a92 92 0 00-2-20z"/>
  <defs>
    <linearGradient id="paint0_linear" x1="345.8" x2="396.3" y1=".8" y2="121.9" gradientUnits="userSpaceOnUse">
      <stop stop-color="#F7A58D"/>
      <stop offset=".9" stop-color="#fff"/>
    </linearGradient>
  </defs>
</svg>
