<svg xmlns="http://www.w3.org/2000/svg" fill="none" viewBox="0 0 811 395">
  <defs/>
  <path fill="#442B2B" d="M232 327c0 37 21 67 47 67h47c26 0 47-30 47-67 0-36-21-66-47-66h-47c-26 0-47 30-47 66z"/>
  <path fill="#402B2B" d="M602 327c0 37 21 66 47 66h48c26 0 47-30 47-66 0-37-22-67-48-67h-47c-26 0-47 30-47 67z"/>
  <path fill="#000" d="M0 228l14-32h44v122H0v-90z"/>
  <path fill="#442B2B" d="M228 321h191l-22-13H253l-25 13z"/>
  <path fill="#822626" d="M49 213v122h155l49-27h144l44 26 315-1c5 0 9-4 9-9V211l-716 2z"/>
  <path fill="#EF5F53" d="M386 240h246V16c0-9-8-16-17-16H385l1 240z"/>
  <path fill="#F39476" d="M1 241h384V1H17C8 1 0 9 0 18l1 223z"/>
  <path fill="#402B2B" d="M571 327c0 37-21 66-47 66h-47v-22c-18 0-32-20-32-44 0-25 14-44 32-44v-23h47c26 0 47 30 47 67z"/>
  <path fill="#4B2A2A" d="M438 327c0 30 17 55 39 55 21 0 38-25 38-55s-17-55-39-54c-21 0-38 24-38 54z"/>
  <path fill="#E14841" d="M477 363c14 0 25-16 25-36s-12-36-26-36-25 16-25 36 11 36 26 36zm0-57c8 0 15 9 15 21s-7 21-15 21c-9 0-16-9-16-21s7-21 16-21z" opacity=".3"/>
  <path fill="#402B2B" d="M477 394c26 0 47-30 47-67s-22-67-48-67-47 30-47 67 22 67 48 67zm-1-121c22 0 39 24 39 54s-17 55-38 55c-22 0-39-25-39-55s17-54 38-54z"/>
  <path fill="#E14841" d="M470 327c0-5 3-9 6-9 4 0 7 4 7 9s-3 9-6 9c-4 0-7-4-7-9z" opacity=".3"/>
  <path fill="#000" d="M200 328c0 37-21 66-47 66h-47v-22c-17 0-31-20-31-44 0-25 13-44 31-44v-23h47c26 0 47 30 47 67z"/>
  <path fill="#CD2827" d="M796 145l1 2 12-1 1-2a730 730 0 00-1-59h-14l-2 2c0 19 0 38 3 58z"/>
  <path fill="#822626" d="M784 162h1l16-9c4-2 7-5 7-10l-1-61c0-3-2-4-4-4h-46l-2 1c0 2 1 2 2 2h46v62c0 3-1 5-4 6l-16 9c-1 0-2 1-1 2 0 2 1 2 2 2z"/>
  <path fill="#CD2827" d="M419 240h55c29 0 35 14 53 50l57-1v-11h215l2-88v-4c0-9-1-20-4-31-12-42-41-86-53-103l-10-14c-8-11-14-17-24-17l-261 1c-5 0-10 4-11 9-23 82-19 145-19 209zM638 51l2-2h80c4 0 9 2 12 6 31 43 43 81 48 103l5 24c0 3-2 6-5 6h-20c-3 0-6-2-9-4l-39-38c-4-4-10-7-16-7h-47l-11-88z"/>
  <path fill="#822626" d="M597 156l6 24c1 6 6 10 12 10 77 3 141 3 186 0v-3c0-10-1-21-4-32l-200 1z"/>
  <path fill="#402B2B" d="M455 49h79c5 0 9 2 11 7 22 42 27 80 27 103v23c0 3-3 6-6 6h-19c-3 0-7-1-9-4l-31-38c-4-4-9-7-15-6h-47l8-89 2-2z" opacity=".8"/>
  <path fill="url(#paint0_linear)" d="M419 240h55c29 0 35 14 53 50l57-1v-11h215l2-88c-45 3-109 3-186 0-6 0-11-4-12-10l-6-24c-10-45-22-77-37-112-1-2 1-5 4-5l170-1c-8-11-14-17-24-17l-261 1c-5 0-10 4-11 9-23 82-19 145-19 209zm26-100l7-89 3-2h79c5 0 9 2 11 7 22 42 27 80 27 103v23c0 3-3 6-6 6h-20c-3 0-6-1-8-4l-31-38c-4-4-9-7-15-6h-47z"/>
  <path fill="url(#paint1_linear)" d="M428 234c0 3 3 6 7 6h39c29 0 35 14 53 50l57-1v-11l-1-99c0-49-8-80-32-129-3-7-11-11-19-11h-84a887 887 0 00-20 195zm17-94l7-89 3-2h79c5 0 9 2 11 7 22 42 27 80 27 103v23c0 3-3 6-6 6h-20c-3 0-6-1-8-4l-31-38c-4-4-9-7-15-6h-47z"/>
  <path fill="#822626" d="M456 52h78c4 0 7 2 9 5 22 43 26 82 26 101v24c0 1-1 3-3 3h-19c-3 0-5-1-6-3l-32-38c-4-5-10-7-17-7h-44l8-85zm-1-3l-2 2-8 89h47c6 0 11 2 15 6l31 38c2 3 6 4 9 4h19c3 0 6-3 6-6v-23c0-23-5-61-27-103-2-5-6-7-11-7h-79z"/>
  <path fill="#CD2827" d="M583 232v46h85c-1-12-3-24-6-35-2-4-6-7-10-8-19-2-43-3-69-3zm172 46h43l2-46-29 3c-4 1-8 4-9 8-4 11-6 23-7 35z" opacity=".4"/>
  <path fill="#EE4D47" d="M584 325h197c13 0 24-11 24-25v-4c0-4-3-7-7-7l-214 1v35z"/>
  <path fill="#CD2827" d="M547 325h37v-35h-56l6 24c1 7 7 11 13 11zM460 196c9 0 25 2 25 8s-14 8-26 8c-11 0-12-7-13-9-1-3-2-7 14-7z"/>
  <path fill="#9B1616" d="M461 202c-4 0-8-1-10-3l7-1c7 0 17 0 22 3l-6 1h-13zM477 207l3 1-16 2-11-1 5-2h19z"/>
  <path fill="#822626" d="M584 278v12l214-1 1-11H584z"/>
  <path fill="#822626" d="M676 229v47h72v-47c0-6-5-10-12-10h-49c-6 0-11 5-11 10z" opacity=".2"/>
  <path fill="#fff" d="M772 274h15c4 0 7-3 7-7v-8c0-4-3-7-7-7h-15c-4 0-7 3-7 7v8c0 4 3 7 7 7zM629 275h15c4 0 7-4 7-8v-7c0-4-3-8-7-8h-15c-4 0-7 4-7 8v7c0 4 3 8 7 8z"/>
  <path fill="#CD2827" d="M531 145l2 2h30l2-2a729 729 0 00-2-59h-32l-2 2c-1 18 0 37 2 57z"/>
  <path fill="#822626" d="M569 162l2-1-1-2-17-9c-2-1-4-3-4-6V83v-1h10c2 0 2-1 2-2l-2-1h-10c-2 0-4 1-4 4v61c0 5 2 8 6 10l17 8h1z"/>
  <path fill="#fff" d="M681 328h69v-21h-69v21z"/>
  <path fill="#8E6362" d="M560 45c15 35 26 67 37 111h199c-11-42-40-87-52-103l-10-14H564c-3 1-5 3-4 6z" opacity=".8"/>
  <path fill="#000" d="M71 328c0 30 17 55 39 54 21 0 38-24 38-54 0-31-17-55-38-55-22 0-39 25-39 55z"/>
  <path fill="#625C5C" d="M110 364c14 0 25-16 25-36s-11-36-25-36-26 16-26 36 12 36 26 36zm0-57c8 0 15 9 15 21 0 11-7 21-15 21-9 0-15-9-15-21s6-21 15-21z"/>
  <path fill="#424242" d="M110 395c26 0 47-30 47-67s-21-67-47-67-47 30-47 67 21 67 47 67zm0-122c21 0 38 25 38 55s-17 54-38 54c-22 0-39-24-39-54s17-55 39-55z"/>
  <path fill="#8B8282" d="M103 328c0-5 3-9 7-9 3 0 6 4 6 9s-3 9-6 9c-4 0-7-4-7-9z"/>
  <defs>
    <linearGradient id="paint0_linear" x1="609.9" x2="609.9" y1="-40.6" y2="297" gradientUnits="userSpaceOnUse">
      <stop stop-color="#F4A984"/>
      <stop offset="1" stop-color="#EE4D47"/>
    </linearGradient>
    <linearGradient id="paint1_linear" x1="505.9" x2="505.9" y1="-288.4" y2="296.6" gradientUnits="userSpaceOnUse">
      <stop stop-color="#F4A984"/>
      <stop offset=".6" stop-color="#EE4D47"/>
    </linearGradient>
  </defs>
</svg>
