<svg xmlns="http://www.w3.org/2000/svg" fill="none" viewBox="0 0 1600 997">
  <defs/>
  <path fill="url(#paint0_linear)" d="M1285 0H0v800h1185c55 0 100-45 100-100V0z"/>
  <mask id="a" width="1600" height="997" x="0" y="0" maskUnits="userSpaceOnUse">
    <path fill="url(#paint1_linear)" d="M1600 0H0v996h1500c55 0 100-45 100-100V0z"/>
  </mask>
  <g mask="url(#a)">
    <path fill="url(#paint2_linear)" d="M1651 429h-14c-3 0-5 2-5 5v304c0 4-3 7-7 7s-7-3-7-7V541c0-5-4-10-10-10h-18c-5 0-10 5-10 10v18c0 5-4 10-10 10h-84c-6 0-10 4-10 9v5c0 3-2 4-4 4s-4 2-4 5v68c0 5-5 10-10 10h-1c-6 0-10 4-10 10v48c0 5-5 10-10 10h-6c-6 0-10 4-10 10v68c0 3-2 5-5 5-2 0-4-2-4-5V434c0-2-2-4-4-4s-4-2-4-4v-33c0-4-3-7-7-7-3 0-6-3-6-7v-32c0-2-2-4-4-4-3 0-5-2-5-5v-29c0-5-4-10-10-10h-36c-6 0-10 5-10 10v29c0 3-2 5-5 5-2 0-4 2-4 4v32c0 4-3 7-7 7-3 0-6 3-6 7v33c0 2-2 3-3 3-2 0-4 2-4 4v260c0 4-3 7-7 7s-7 4-7 8v104c0 5-4 9-9 9h-9l-1-1v-1h-3l-2-2 2-1h1c2 0 2-1 2-2s0-2-2-2h-1l-2-2 2-2h1c2 0 2-1 2-2s0-2-2-2h-1l-2-1 2-2h1c2 0 2-1 2-2s0-2-2-2h-1l-2-1 2-2h1c2 0 2-1 2-2s0-2-2-2h-1l-2-2 2-1h1c2 0 2-1 2-2s0-2-2-2h-1l-2-2 2-1h1c2 0 2-1 2-2 0-2 0-2-2-2h-1l-2-2 2-1h1c2 0 2-1 2-3 0-1 0-2-2-2h-1l-2-1 2-2h1c2 0 2-1 2-2s0-2-2-2h-1l-2-1 2-2h1c2 0 2-1 2-2s0-2-2-2h-1l-2-1 2-2h1c2 0 2-1 2-2s0-2-2-2c-1 0-3-1-3-3v-1l3-2c2 0 2-1 2-2s0-2-2-2h-1l-2-2 2-1h1c2 0 2-1 2-2 0-2 0-2-2-2h-1l-2-2 2-1h1c2 0 2-1 2-3 0-1 0-2-2-2h-1l-2-1 2-2h1c2 0 2-1 2-2s0-2-2-2h-1l-2-1 2-2h1c2 0 2-1 2-2s0-2-2-2h-1l-2-1 2-2h1c2 0 2-1 2-2s0-2-2-2h-1l-2-2 2-1h1c2 0 2-1 2-2s0-2-2-2h-1l-2-2 2-1h1c2 0 2-1 2-2 0-2 0-2-2-2h-1l-2-2 2-1h1c2 0 2-1 2-3 0-1 0-2-2-2h-1l-2-1 2-2h1c2 0 2-1 2-2s0-2-2-2h-1l-2-1 2-2h1c2 0 2-1 2-2s0-2-2-2h-1l-2-1 2-2h1c2 0 2-1 2-2s0-2-2-2h-1l-2-2 2-1h1c2 0 2-1 2-2s0-2-2-2c-1 0-3-1-3-3v-1c0-2 2-3 3-3 2 0 2-1 2-2s0-2-2-2h-1l-2-2 2-1h1c2 0 2-1 2-2s0-2-2-2h-1l-2-2 2-1h1c2 0 2-1 2-2 0-2 0-3-2-3h-1l-2-1 2-2h1c2 0 2 0 2-2 0-1 0-2-2-2l-3-2v-3l-1-2c-2 0-2-1-2-2v-3c0-2-2-4-5-4s-5-2-5-5v-14c0-2-2-4-4-4s-4-1-4-3v-17c0-4-3-8-8-9l-15-4c-3-1-6-3-6-7v-39l-1-1-2 1v40c0 2-2 4-4 3-3 0-5 2-5 4v29c0 2-1 3-3 3s-3 2-3 4v14c0 3-3 5-5 5h-1c-3 0-4 2-4 4v2l-2 2-2 2v1c0 2-2 4-4 4h-39c-6 0-10 4-10 10v27c0 5-5 10-10 10h-38l-38 15-2 3v15c0 2 2 3 3 3h1c2 0 3 2 3 3s-1 3-3 3h-1c-2 0-3 1-3 2s1 3 3 3h1c2 0 3 1 3 2 0 2-1 3-3 3h-1c-2 0-3 1-3 2 0 2 1 3 3 3h1c2 0 3 1 3 2 0 2-1 3-3 3h-1c-2 0-3 1-3 2 0 2 1 3 3 3h1c2 0 3 1 3 2 0 2-1 3-3 3h-1c-2 0-3 1-3 2 0 2 1 3 3 3h2l2 2-2 2h-40c-4 0-8-3-9-7l-11-28c-2-5-8-5-10 0s-11 4-11-2v-13-18l-1-50v-22l-2-47-1-23-2-44v-5l-3-39-6-71v-9c-1-5-5-9-11-9h-83c-5 0-9 4-9 9v2l-1 15-2 13-2 24-1 11-1 20-1 9-1 26-1 9-1 27-1 6-1 26v5l-1 29v6l-1 30v78c0 5-4 9-9 9s-9 4-9 9v102c0 6-5 10-10 10h-10l-2-1 2-1 2-2v-1l-2-1-2-2v-2l2-2 2-2v-1l-2-2c-1 0-2 0-2-2v-2l2-2 2-1v-1l-2-2-2-2v-2l2-2 2-2v-1l-2-2-2-2v-2l2-2 2-1v-1l-2-2-2-2v-2l2-2 2-2v-1l-2-2-2-2v-2l2-2 2-2-2-2-2-2v-2l2-2 2-2v-1l-2-2-2-2v-2l2-2 2-2c0-2-1-2-2-2l-2-2v-2l2-2 2-2v-1l-2-2-2-2v-2l2-2 2-2v-2l-2-2-2-2v-2l2-2 2-2v-1l-2-2-2-2v-2l2-2 2-2v-1l-2-2c-1 0-2 0-2-2v-2l2-2 2-1v-1l-2-2-2-2v-2l2-2 2-2v-1l-2-2-2-2v-2l2-2c1 0 2 0 2-2l-2-2-2-2v-2l2-2 2-2v-1l-2-2-2-2v-2l2-2 2-2-2-2-2-2v-2l2-2 2-2v-1l-2-2-2-2v-2l2-2 2-2v-2l-2-2-2-2v-2l2-2 2-2v-1l-2-2c-1 0-2 0-2-2v-2l2-2 2-1v-1l-2-2-2-2v-2l2-2 2-2v-1l-2-2-2-2v-6l2-2 2-2v-1c0-2-1-4-3-4h-6c-2 0-3-1-3-3l2-2c2 0 3-3 2-4l-15-20c-2-3-5-4-8-4-5 0-9-4-9-10l-1-3v-24l-2-1-1 1v25l-1 2c0 6-4 10-9 10-3 0-6 1-8 4l-16 21c-1 1 0 3 1 3l2 1v1c0 2-2 3-3 3h-6c-2 0-3 2-3 4s1 3 2 3l2 2v6l-2 2c-1 0-2 1-2 3l2 2 2 2v2l-2 2-2 2 2 2c1 0 2 1 2 3v1l-2 2c-1 0-2 1-2 3l2 2 2 2v2l-2 2-2 2 2 3 2 2v1l-2 2c-1 0-2 1-2 3l2 2 2 2v2l-2 2-2 2c0 2 1 3 2 3l2 2v1l-2 3-2 2 2 2 2 2v2l-2 2-2 2c0 2 1 3 2 3l2 2v1c0 2-1 3-2 3l-2 2 2 2c1 0 2 1 2 3v1l-2 2-2 2c0 2 1 3 2 3l2 2v1c0 2-1 3-2 3l-2 2 2 2c1 0 2 1 2 3v1l-2 2c-1 0-2 1-2 3l2 2 2 2v1c0 2-1 3-2 3l-2 2 2 2c1 0 2 1 2 3v1l-2 2c-1 0-2 1-2 3l2 2h2v1h-23c-3 0-5-2-5-5V424c0-4-3-8-7-10l-14-4c-4-2-9 1-9 6v1c0 3-1 5-4 5-2 0-4-2-4-5v-29c0-5-3-9-7-10l-32-8c-6-1-12 3-12 9l-4 55-1 6v10l-1 5v6l-1 4v6l-1 5v10l-1 6v5l-1 6v10l-1 5v6l-1 4v6l-1 5v11l-1 1c0 3-1 5-3 7l-4 3c-3 2-4 4-4 7v1l-1 5v11l-1 5v5l-1 6v5l-1 5-2 2h-37c-5 0-10 5-10 10v51c0 3-3 6-6 6-4 0-7 3-7 7v129c0 5-4 9-9 9s-9-4-9-9V298c0-2-1-3-3-3s-3-2-3-3v-49c0-6-5-10-10-10h-77c-5 0-10 4-10 10v49c0 2-1 3-3 3s-4 2-4 4v224c0 4-2 6-6 6h-5l-1 2-1 1-1 1v4l1 1 1 1-1 1-1 1v5l1 1h1v1l-1 1-1 1v4l1 1 1 1-1 1-1 1v5h1l1 1v1l-1 1h-1v5l1 1 1 1-1 1-1 1v4l1 1 1 1v1h-1l-1 1v5l1 1 1 1-1 1-1 1v4l1 1 1 1-1 1-1 1v5l1 1h1v1l-1 1-1 1v4l1 1 1 1-1 1-1 1v5h1l1 1v1l-1 1h-1v5l1 1 1 1-1 1-1 1v4l1 1 1 1v1h-1l-1 1v5l1 1 1 1-1 1-1 1v4l1 1 1 1v9l-1 1-1 1v4l1 1 1 1-1 1-1 1v1l-1 2h-17c-5 0-10-5-10-10V550c0-5-4-10-10-10h-54c-5 0-10 5-10 10v70c0 5-4 10-10 10h-9c-1 0-2-1-2-3l-3-2h-2c-2 0-4-2-4-5V283c0-2-2-4-4-4s-3-1-3-3v-94c0-6-5-10-10-10h-97c-5 0-10 4-10 10v94c0 2-1 3-3 3s-4 2-4 4v446c0 4-3 8-8 8-4 0-8-4-8-8V566c0-5-4-10-10-10h-8c-5 0-10-4-10-10v-65c0-3-2-5-4-5-3 0-5-2-5-4v-22c0-6-5-10-10-10H-80c-5 0-10 4-10 10v22c0 2-2 4-4 4-3 0-5 2-5 5v276c0 6-4 10-10 10h-10c-6 0-10-4-10-10V589c0-5-5-10-10-10h-92c-5 0-10 5-10 10v99c0 5-4 10-10 10h-4c-6 0-10 4-10 10v98c0 4-3 7-7 7s-8-3-8-7V475c0-2-1-3-3-3h-1l-1-1 1-2h1c2 0 3-1 3-2v-3c0-2-1-3-3-3h-1l-1-1 1-2h1c2 0 3-1 3-2v-3c0-2-1-3-3-3h-1l-1-1 1-1h1c2 0 3-2 3-3v-3c0-2-1-3-3-3h-2v-1-1h3c1 0 3-1 3-3v-2c0-2-2-3-3-3h-2l-1-1 1-2h2c1 0 3-1 3-3v-2c0-2-2-3-3-3h-2l-1-1 1-2h2c1 0 3-1 3-3v-2c0-2-2-3-3-3h-2l-1-1 1-1h2c1 0 3-2 3-4v-23c0-4-2-7-4-9a93 93 0 01-32-68v-2c0-2-2-4-4-4h-1c-1 0-2 1-2 3l-2 2h-3c-3 0-5-2-5-5v-66c0-2-1-2-2-2s-2 0-2 2v70l-1 1-1-1v-1l-2-2h-3c-2 0-3 1-3 2l-2 2h-9l-2-2c0-1-1-2-3-2h-1c-2 0-4 1-4 4 0 35-10 59-21 70-2 2-4 5-4 9v18h1v5c0 2 1 3 4 3h2l1 2-1 1h-2c-3 0-4 2-4 4v1c0 2 1 3 4 3h2l1 2-1 1h-3c-2 0-4 2-4 4 0 3 2 4 4 4h3l1 1-1 1h-3c-2 0-4 2-4 4 0 3 2 4 4 4h3l1 2-1 1h-3c-2 0-4 2-4 4 0 3 2 4 4 4h3l1 2-1 1h-3c-2 0-4 2-4 4 0 3 2 4 4 4h3l1 2-1 1h-3c-2 0-4 2-4 4 0 3 2 4 4 4h3l1 2-1 1h-3c-2 0-4 2-4 4v168c0 5-5 10-10 10h-4c-5 0-10 4-10 10v73c0 4-3 7-6 7-4 0-7 3-7 6v66c0 3-3 4-5 4h-1c-5-1-9-5-9-10V657c0-4-2-7-6-9l-4-2h-2c-1 0-3-1-3-3v-2l-1-1-2 1-1 2-2 1-1 1-5 1c-1 0-2-1-2-3l-1-2h-1l-2-1-25 1c-2 0-3 1-3 3l-2 2h-1c-1 0-3 1-3 3v31c0 5-4 10-10 10h-26c-6 0-10-5-10-10V480c0-3-3-5-6-5s-5-3-5-6v-39c0-5-5-10-10-10h-21c-4 0-8-3-8-7s-3-7-7-7h-6c-6 0-10-5-10-10v-3c0-6-5-10-10-10h-76c-5 0-10 4-10 10v17c0 6-4 10-10 10h-28c-5 0-10 5-10 10v368c0 6-4 10-10 10h-6c-6 0-10 5-10 10v17c0 6-5 10-10 10h-4c-6 0-10-4-10-10v-97c0-5-5-10-10-10h-18c-6 0-10-4-10-10v-28h-1v-5l-2-5-6-8c-2-2-2-4-2-7v-8l-2-3-1-3v-18l-1-1v19l-1 3-1 2v11l-2 5-6 8-1 5v2l-1 3-2 2v1c0 1 0 3-2 4l-2 3-2 3c-2 1-2 2-2 4v39c0 4-5 8-9 8-5 0-8-4-8-8v-79c0-6-4-10-10-10h-32c-5 0-10 4-10 10v39c0 6-4 10-10 10h-13c-5 0-10 5-10 10v28c0 2-1 4-4 4-2 0-4 2-4 4v47c0 2-1 3-3 3s-3-1-3-3v-20c0-2-2-4-4-4-3 0-4-2-4-4V564c0-5-5-10-10-10h-62c-53 0-96 37-96 90v32c0 6-4 10-10 10h-7c-15 0-27 26-27 41v52c0 5-5 10-10 10h-25c-6 0-10-5-10-10v-52c0-6-5-10-10-10h-10c-5 0-10 4-10 10v111c0 3-3 6-6 6-4 0-7-3-7-6v-61c0-2-2-4-4-4s-3-1-3-3v-43c0-6-5-10-10-10h-7c-5 0-10-5-10-10v-49c0-6-4-10-10-10h-37c-6 0-10 4-10 10v256c0 5 4 10 10 10h3080c5 0 10-5 10-10V439c0-6-5-10-10-10h-25zm-474 239l-2 1h-3v-1l2-2h1l2 2zm0-7l-2 1h-1l-2-1 2-2h1l2 2zm0-8l-2 2h-1l-2-2 2-1h1l2 1zm0-8l-2 2h-1l-2-2 2-1h1l2 1zm0-7l-2 1h-1l-2-1 2-2h1l2 2zm0-8l-2 2h-1l-2-2 2-1h1l2 1zm0-7l-2 2h-1l-2-2 2-1h1l2 1z"/>
    <path fill="url(#paint3_linear)" d="M1368 617c-73 0-132 126-132 280h265c0-155-60-280-133-280z"/>
    <path fill="url(#paint4_linear)" d="M1368 617c-73 0-132 126-132 280h265c0-155-60-280-133-280z"/>
    <mask id="b" width="266" height="282" x="1235" y="616" maskUnits="userSpaceOnUse">
      <path fill="url(#paint5_linear)" d="M1368 617c-73 0-132 126-132 280h265c0-155-60-280-133-280z"/>
    </mask>
    <g mask="url(#b)">
      <path stroke="url(#paint6_linear)" stroke-width="2" d="M1257 642c42-19 126-50 130-22 4 35-239 184-156 152 83-31 155-118 173-88 18 31-162 158-101 152 60-6 135-148 158-125 24 22-154 179-114 192 40 14 149-208 193-214" opacity=".2"/>
    </g>
    <path fill="#C9D983" d="M1484 897h17c0-155-60-280-133-280l-8 1c69 9 124 131 124 279z" opacity=".3"/>
    <path fill="url(#paint7_linear)" d="M1515 693c-53 0-97 92-97 205h194c0-113-43-205-97-205z"/>
    <mask id="c" width="195" height="206" x="1418" y="693" maskUnits="userSpaceOnUse">
      <path fill="url(#paint8_linear)" d="M1515 693c-53 0-97 92-97 205h194c0-113-43-205-97-205z"/>
    </mask>
    <g mask="url(#c)">
      <path stroke="url(#paint9_linear)" stroke-width="2" d="M1485 646c-38 62-99 173-39 123 76-64 148-43 118 0s-118 20-109 66c6 36 104-18 152-50" opacity=".2"/>
    </g>
    <path fill="#C9D983" fill-rule="evenodd" d="M1592 898h20c0-113-43-205-97-205l-10 1c48 11 86 98 87 204z" clip-rule="evenodd" opacity=".3"/>
    <path fill="url(#paint10_linear)" d="M1134 593c-85 0-154 136-154 303h307c0-167-68-303-153-303z"/>
    <mask id="d" width="309" height="303" x="979" y="593" maskUnits="userSpaceOnUse">
      <path fill="url(#paint11_linear)" d="M1134 593c-85 0-154 136-154 303h307c0-167-68-303-153-303z"/>
    </mask>
    <g mask="url(#d)">
      <path stroke="url(#paint12_linear)" stroke-width="2" d="M993 654c16-19 53-53 69-36 20 21-23 93 5 101 28 9 67-127 100-114 34 13-145 224-83 232 63 8 91-181 118-168s-61 115-30 144c30 30 46-109 70-94 24 16 7 94-16 147" opacity=".2"/>
    </g>
    <path fill="#C9D983" d="M1253 896h34c0-167-68-303-153-303l-17 2c76 17 136 145 136 301z" opacity=".2"/>
    <path fill="#0C5E59" d="M1353 710h-3v184h3V710z"/>
    <path fill="url(#paint13_linear)" d="M1372 699c-6 0-12 4-16 8 3-4 7-8 10-9 4-2 8-1 8-1s-4-6-11-4c-3 2-5 6-7 10 1-4 2-8 1-12-2-11-13-12-13-12a47 47 0 008 24c-1-6-4-13-10-17-15-10-24 7-24 7s9-5 20 0c8 5 12 14 13 18-1-3-7-14-17-15-14-3-18 16-18 16s8-7 19-6c8 0 13 3 16 6l-9-1c-13-1-15 17-15 17l24-15-4 9c-2 4-1 13-1 13l5-12c2-4 1-8 1-10l17 18s4-11-9-16a141 141 0 006 2c8 5 12 11 12 11s5-13-6-18c-4-2-8-2-11-1 2-2 6-3 10-2 10 1 13 8 13 8s3-16-12-16z"/>
    <path fill="#0C5E59" d="M1244 597h-4v301h4V597z"/>
    <path fill="url(#paint14_linear)" d="M1274 571c-11 0-22 8-29 16 5-7 12-16 17-17 9-3 16-2 16-2s-8-12-21-6c-5 2-10 10-13 18 2-7 3-16 2-23-3-19-24-21-24-21s12 17 14 36v8c-2-12-6-25-17-32-26-18-43 13-43 13s15-9 35 1c16 8 23 25 25 32-3-5-14-25-31-28-27-4-34 30-34 30s15-13 34-12c15 1 26 7 31 12-3-1-9-3-16-3-24 0-29 32-29 32l45-28-8 17c-3 7-1 23-1 23s7-12 9-20 2-16 1-20l31 33s7-20-15-30a286 286 0 0011 5c13 8 21 20 21 20s9-24-12-34c-6-3-14-3-20-1 5-3 11-5 19-4 18 2 23 15 23 15s5-30-21-30z"/>
    <g clip-path="url(#clip0)">
      <path fill="#F9F8EF" d="M1637 837h-157v67h157v-67z"/>
      <path fill="url(#paint15_linear)" fill-rule="evenodd" d="M1560 820l8-18 17-28s-4 14-12 30c-7 14-11 20-13 20v1l15-15 27-21-22 24-17 14 16-9c17-9 33-14 33-14s-12 9-29 17c-13 7-20 10-23 10v1c2-2 9-4 23-8 19-5 35-7 35-7s-14 6-33 11l-15 4 15-2c20-3 37-2 37-2s-16 4-36 6c-16 2-24 3-26 2h-9l-20-1-36-7 37 2a379 379 0 010-1l-33-12a308 308 0 0059 15l-23-10-29-17a288 288 0 0048 22l-16-14c-14-12-23-24-23-24a228 228 0 0040 34l-11-19c-8-16-12-29-12-29a197 197 0 0026 46v-1c-1-3-2-10-2-24 0-17 3-32 3-32a196 196 0 001 56zm-2 5h-1l1 1v-1zm0 4l-2-1 2 1zm2 0l2-2-2 1v1zm-2 5h-3l3 1v-1zm2 1l3-2-3 1v1zm-12 1h-36a294 294 0 0136 0zm21 0h36a204 204 0 00-36 0z" clip-rule="evenodd"/>
    </g>
    <path fill="url(#paint16_linear)" d="M1147 862a136 136 0 00-47-77c-11-9-24-17-38-22l-5-2c-13-5-28-8-43-8h-6c-15 0-30 3-43 8l-6 2c-13 5-26 13-37 22l-4 4c-10 9-19 20-27 32l-2 5c-7 11-11 23-14 36l-1 6c-2 8-2 16-2 24h278l-2-24-1-6z"/>
    <path fill="url(#paint17_linear)" d="M1008 753v139h6V753h-6z" opacity=".3"/>
    <path fill="url(#paint18_linear)" d="M959 763l35 129h6l-36-131-5 2z" opacity=".3"/>
    <path fill="url(#paint19_linear)" d="M918 789l60 103h6l-62-107-4 4z" opacity=".3"/>
    <path fill="url(#paint20_linear)" d="M889 826l66 66h8l-72-71-2 5z" opacity=".3"/>
    <path fill="url(#paint21_linear)" d="M874 868l42 24h11l-52-30-1 6z" opacity=".3"/>
    <path fill="url(#paint22_linear)" d="M1022 892h5l35-129-5-2-35 131z" opacity=".3"/>
    <path fill="url(#paint23_linear)" d="M1038 892h6l60-103-4-4-62 107z" opacity=".3"/>
    <path fill="url(#paint24_linear)" d="M1059 892h7l67-66-3-5-71 71z" opacity=".3"/>
    <path fill="#084F15" d="M1095 892h11l42-24-1-5-52 29z"/>
    <path fill="url(#paint25_linear)" d="M1251 873c-2-8-5-16-9-23l-1-3c-5-8-11-15-17-21l-3-2a89 89 0 00-55-20h-3c-10 0-19 2-28 5l-3 1c-9 3-17 8-24 14l-2 2c-7 6-13 13-17 21l-2 3c-4 7-7 15-9 23l-1 4-1 15h177l-2-15v-4z"/>
    <path fill="url(#paint26_linear)" d="M1163 804v88h3v-88h-3z" opacity=".3"/>
    <path fill="url(#paint27_linear)" d="M1132 810l22 82h4l-23-83-3 1z" opacity=".3"/>
    <path fill="url(#paint28_linear)" d="M1106 826l38 66h4l-40-68-2 2z" opacity=".3"/>
    <path fill="url(#paint29_linear)" d="M1087 850l42 42h5l-45-45-2 3z" opacity=".3"/>
    <path fill="url(#paint30_linear)" d="M1078 877l26 15h7l-33-19v4z" opacity=".3"/>
    <path fill="url(#paint31_linear)" d="M1172 892h3l22-82-3-1-22 83z" opacity=".3"/>
    <path fill="url(#paint32_linear)" d="M1182 892h4l38-66-3-2-39 68z" opacity=".3"/>
    <path fill="url(#paint33_linear)" d="M1195 892h5l42-42-1-3-46 45z" opacity=".3"/>
    <path fill="url(#paint34_linear)" d="M1218 892h7l27-15-1-4-33 19z" opacity=".3"/>
    <path fill="url(#paint35_linear)" d="M1606 883H-7v119h1613V883z"/>
    <mask id="e" width="1615" height="120" x="-8" y="882" maskUnits="userSpaceOnUse">
      <path fill="url(#paint36_linear)" d="M1606 883H-7v119h1613V883z"/>
    </mask>
    <g mask="url(#e)">
      <path fill="url(#paint37_linear)" fill-rule="evenodd" d="M678 930c-11 11-21 19-33 18l-7-1c-2-2-3-3-3-5v-6l3-8c5-10 14-23 22-35a2086 2086 0 0016-22l7-15v-5l-2-3h-5l-10 1c-9 3-18 8-27 15a1403 1403 0 00-79 78l-21 23c-24 25-47 49-69 65s-42 24-59 17c-9-3-13-8-14-14 0-6 3-12 8-19 11-14 30-31 48-46l2-2a888 888 0 0044-41l4-8v-6l-4-4-11-3c-16-2-36 3-58 12s-46 22-70 37c-48 31-95 68-124 94l-1-2c29-25 76-63 124-93 24-16 48-29 71-38 22-9 42-14 58-12l12 3c2 1 4 3 5 6v7c-1 3-2 6-5 9-4 6-11 12-19 20l-24 21-2 1c-19 16-38 32-48 46-5 7-8 13-8 18 1 5 4 9 12 12 17 7 36-1 58-17a529 529 0 0089-87l48-51 31-28c10-7 19-12 28-14 4-2 8-2 10-2 3-1 5 0 7 1 2 0 3 2 3 3v6a400 400 0 01-21 35l-2 3c-9 13-18 25-22 35l-3 7v6l2 3 6 1c11 1 21-6 32-17l26-34 7-8c11-15 23-31 37-42 13-12 28-20 45-20v2c-16 0-31 8-44 19a264 264 0 00-43 51c-9 12-18 24-27 33zm480-66c-2-4-7-7-15-6-15 0-30 13-45 32-14 19-28 44-42 69s-27 49-41 67c-7 9-14 16-21 21s-15 7-22 6c-8-1-13-4-16-9-2-5-3-11-2-18 1-14 8-32 15-50l1-4c7-16 13-32 15-44 1-6 1-11-1-15-2-3-6-5-12-5s-12 3-18 8-12 12-18 21c-10 14-20 33-30 52l-5 11c-12 23-25 47-40 64-14 18-30 30-49 30-9 0-15-3-18-7-3-5-3-11-2-18l9-25 11-24 3-5c9-19 18-38 20-54 1-7 0-13-3-18-4-5-10-8-20-9-32-3-64 11-91 30-28 19-51 43-63 59l-2-2c13-16 36-40 63-59 28-19 61-33 94-30 10 1 17 5 20 10 4 5 5 12 4 20-2 15-11 35-21 54l-2 5-11 24-9 24c-1 7-1 13 2 16 2 4 8 7 16 7 18 0 34-12 48-29a383 383 0 0045-75c10-19 19-38 29-53 6-8 12-16 18-21s13-8 20-8 11 2 13 6c3 5 3 10 2 17-2 12-8 28-15 44l-1 4c-7 18-14 35-15 49-1 7 0 13 2 17 3 4 7 7 14 8s14-1 21-6c7-4 14-11 20-20 14-18 28-42 41-67 14-25 28-50 43-69 14-20 30-33 46-33 9-1 14 2 17 7 3 4 4 11 3 19l-6 26-4 15v1l-5 15-7 30v27c2 7 6 14 12 18s16 7 29 7v2c-14 0-23-3-30-7-7-5-11-12-13-20v-27a253 253 0 0112-46l4-15 6-27c1-7 0-13-3-17zm390 117c-3-7-7-16-14-25l-24-27c-14-15-32-31-47-45a5260 5260 0 01-31-29l-12-15v-4l3-1 25 4v-2c-12-3-20-4-25-4l-5 2v6l12 15a556 556 0 0032 30 1015 1015 0 0170 72c7 8 12 17 14 24l2 9-1 5-2 2-4-1-15-8a621 621 0 01-25-18c-16-11-34-25-52-36-21-12-42-23-61-27l-22-3-5 2-1 1v2l2 5 4 5 15 13 12 10 32 27a251 251 0 0145 54l1 4c0 1-1 2-3 2l-6-1a1154 1154 0 01-56-23l-3-1c-23-11-50-24-76-34-28-10-55-18-77-19-8 0-15 1-20 3-4 2-7 5-8 8-1 4 0 8 3 13a417 417 0 0084 78v-3c-24-16-56-41-73-62l-10-14c-2-5-2-8-2-11 1-3 3-6 7-7 4-2 11-3 19-3 22 1 48 9 76 19 26 10 53 23 76 34l3 1a1178 1178 0 0056 23l8 1c2 0 3-1 4-3l-1-6-5-10c-10-15-25-30-41-44l-32-27-11-10a223 223 0 01-20-19l-1-3v-1l1-1 4-1 20 3c20 4 40 14 60 27 19 11 37 24 53 36l2 1 1 1a614 614 0 0037 24l6 1c1-1 3-1 3-3l1-6-2-10z" clip-rule="evenodd" opacity=".7"/>
      <path fill="url(#paint38_linear)" d="M476 924c-166 0-194 56-486 56v86h1616V881c-355 0-309 77-615 77s-372-34-515-34z" opacity=".1"/>
    </g>
    <path fill="url(#paint39_linear)" d="M585 517A364 364 0 1070 2a364 364 0 00515 515z" opacity=".2"/>
    <path fill="#0C5E59" d="M91 540h7v457h-7V540z"/>
    <path fill="url(#paint40_linear)" d="M47 501c17 0 33 12 44 23-8-11-18-24-26-26-14-5-25-2-25-2s13-18 32-10c8 4 15 16 20 27-3-11-5-23-3-35 5-29 37-31 37-31s-18 25-21 55l-1 11c3-17 9-38 26-49 40-27 66 21 66 21s-24-14-54 1c-24 12-35 39-38 49 4-8 21-38 48-42 40-7 51 44 51 44s-24-18-52-17c-22 1-38 10-46 17 4-1 13-3 24-3 36 0 43 48 43 48l-68-42 12 25c5 11 2 36 2 36s-11-19-14-31-3-24-2-30l-46 50s-12-31 23-45a438 438 0 01-17 6c-20 13-33 31-33 31s-13-37 18-51c10-5 22-4 32-2-8-5-17-8-29-6-28 3-36 23-36 23s-8-46 33-45z"/>
    <path fill="url(#paint41_linear)" d="M288 967a143 143 0 00-45-77l-4-4c-12-10-25-18-39-23l-6-2c-14-5-30-8-45-8h-6c-16 0-31 3-46 8l-5 2c-14 5-28 13-39 23l-4 4c-11 9-21 21-28 33l-3 5c-7 12-12 25-15 39l-1 6-2 25h291a143 143 0 00-3-31z"/>
    <path fill="url(#paint42_linear)" fill-rule="evenodd" d="M143 853v145h6V853h-6zm-51 10l36 135h6L97 861h-1l-4 2zm19 135L49 890v-1l4-3 65 112h-7zm-93-70l70 70h8l-75-75-2 3-1 2zm28 70L2 973l1-3v-3l55 31H46zm111 0h6l36-135-5-2-37 137zm23 0h-6l65-112 4 4-63 108zm16 0h8l70-70-3-5-75 75zm49 0h-11l54-31 1 6-44 25z" clip-rule="evenodd"/>
    <path fill="url(#paint43_linear)" d="M71 916c-14 0-19-12-19-29 0-16-4-30-23-31-24-1-22 22-22 50 0 36-12 13-30 33-16 17 4 48 10 57h77l16-31c17-30 5-49-9-49z"/>
    <path fill="#fff" fill-rule="evenodd" d="M34 921h-3v54l-17-22-3 3 20 25v15h3v-41l17-20-3-2-14 16v-28z" clip-rule="evenodd" opacity=".2"/>
    <path fill="url(#paint44_linear)" d="M1600 0H0v800h1500c55 0 100-45 100-100V0z"/>
  </g>
  <path fill="url(#paint45_linear)" d="M1383 559a289 289 0 10-409-409 289 289 0 00409 409z" opacity=".6"/>
  <path fill="url(#paint46_linear)" d="M1035 752a212 212 0 10-299-299 212 212 0 00299 299z" opacity=".2"/>
  <path fill="#F4F6D5" d="M623 818a76 76 0 00-26-42 76 76 0 00-47-18h-2-1c-9 0-17 2-25 4l-2 1c-8 3-15 8-21 13l-2 2c-6 5-11 11-15 17l-2 3c-3 6-6 13-7 20l-1 4-1 13h154a76 76 0 00-2-17z"/>
  <path fill="#fff" d="M822 857a118 118 0 00-40-67 118 118 0 00-75-27h-4c-13 0-26 3-38 7l-4 1c-12 5-23 11-32 19l-4 4c-9 8-17 17-23 27l-2 5c-6 9-10 20-12 31l-1 5-2 21h240l-2-21-1-5z"/>
  <path fill="url(#paint47_linear)" fill-rule="evenodd" d="M1049 565l-2 16v1l-3 16c-2 11-5 22-10 33l-1 4-1 1v1l-3 4-4 3-4 1h-7l-9-5-7-6c-9-8-16-16-22-25-5-1-9-5-9-5l6-18-6 17-12-7 4-15 14 5 9 15v2h1a514 514 0 0024 21l1 1 5 3 5 2v-1l1-3a204 204 0 0010-39l1-7 2-15h17zm-30 65z" clip-rule="evenodd"/>
  <path fill="#FFEDBA" d="M1040 543c-7 2-12 32-12 32l20 13s19-30 14-38c-6-8-11-10-22-7z"/>
  <path fill="#ED6B57" d="M1041 549l-6 31 11 7-5-38z" opacity=".3"/>
  <path fill="#FFC3BD" d="M1082 923h-24l-1-40h23l2 40z"/>
  <path fill="#14365B" d="M1058 921h24l2 1 2 20c1 2-1 4-3 4l-23-1-29 1c-8 0-9-10-6-10 17-4 24-9 29-14l4-1z"/>
  <path fill="#F29994" d="M1057 884l1 15h23l-1-15h-23z"/>
  <path fill="url(#paint48_linear)" d="M1055 893s-14-124-15-181c-1-18 2-43 4-60h38l-2 60c-3 56 2 181 2 181h-27z"/>
  <path fill="#FFEDBA" d="M1045 542l-4 18c0 10-9 27-4 36 12 16 6 40 8 54h72c-1-29-1-47 13-107 0 0-15-4-31-4h-32l-22 3z"/>
  <path fill="url(#paint49_linear)" d="M1096 502c-2 10-4 30 3 37 0 0-3 10-22 10-22 0-11-10-11-10 12-3 12-12 10-20l20-17z"/>
  <path fill="#F29994" d="M1088 509l-12 10 1 6c5-1 11-6 11-11v-5z"/>
  <path fill="#0F264C" d="M1059 493c-7-11-5-22 0-28h21l2 32c0 4 20-2 18 2-5-1-33 6-41-6z"/>
  <path fill="url(#paint50_linear)" d="M1107 483c-4 17-5 24-16 31-15 11-35 2-37-16 0-16 6-41 24-45 19-4 33 13 29 30z"/>
  <path fill="#4B2A2A" d="M1086 895h-34l-3-11 38-1-1 12z"/>
  <path fill="#EE4D47" fill-opacity=".3" d="M1076 684c-8 16-5 41-4 63 2 26 3 49 7 62l12-113c-2-19-7-28-15-12z" style="mix-blend-mode:multiply"/>
  <path fill="url(#paint51_linear)" d="M1149 890l-23-92v-91l-7-55h-40c-5 31 5 114 14 157l26 81h30z"/>
  <path fill="#FFC3BD" d="M1132 923l-6-26h22l4 26h-20z"/>
  <path fill="#14365B" d="M1123 935l8-12h21c3 1 4 11 4 17 1 3-1 5-3 6l-18 5h-25c-2 0-4-2-4-4 0-7 12-12 17-12z"/>
  <path fill="#F29994" fill-rule="evenodd" d="M1149 901l-1-4h-22v4h23z" clip-rule="evenodd"/>
  <path fill="#4B2A2A" d="M1153 898h-34l-2-11 38-1-2 12z"/>
  <circle r="20.6" fill="#0F264C" transform="matrix(1 0 0 -1 1117 478)"/>
  <path fill="#0F264C" d="M1080 483l-1-3-2 2c-1 1 0 3 1 3l2-2zM1064 480l-2 2c-1 0-2-1-1-3l2-2 1 3zM1063 477l-3-1s1 3 3 1z"/>
  <path fill="#ED847E" d="M1068 483s-3 6-7 8c2 2 5 2 5 2l2-10z"/>
  <path fill="#0F264C" d="M1074 501h-3l-1-1h1c9 2 14-4 14-4h1v1s-4 4-12 4z"/>
  <path fill="#D3D86C" d="M1116 467c8 19-8 29-17 32l9-18-2-9c-8-5-22-15-14-16 11-1 21 4 24 11z"/>
  <path fill="#0F264C" d="M1079 452c-7 4 12 47 26 41 15-6 10-30 3-36s-18-12-29-5z"/>
  <path fill="#0F264C" d="M1114 467c9 28-10 42-21 46l10-25-2-14c-9-7-25-22-15-23 12-2 24 6 28 16z"/>
  <path fill="#0F264C" d="M1075 450s-10 1-16 13 30-12 25-13c-5-2-9 0-9 0z"/>
  <path fill="url(#paint52_linear)" d="M1108 496l-7 7c-4 1-7-2-6-7 1-4 3-9 8-9 4 0 6 4 5 9z"/>
  <path fill="#FFC3BD" fill-rule="evenodd" d="M1137 562a260 260 0 0118 67v6l-2 4-3 2-5 3h-3-1l-1-1h-1a45 45 0 01-12-5c-9-5-17-11-25-18l-7-7-11-12 7-14 12 9 6 18h1a368 368 0 0028 13l-1-3-3-13-2-7-2-7-9-28 16-7z" clip-rule="evenodd"/>
  <path fill="#0F264C" d="M1084 473l-6-2-1-1 1-1s4 0 7 3v1h-1zM1058 471v-1c3-3 7-3 7-3l1 1-1 1s-3-1-6 2h-1z"/>
  <path fill="#FFEDBA" d="M1130 543c7 2 16 27 16 27l-28 20s-11-21-8-30c4-10 12-20 20-17z"/>
  <path fill="#9FC6FF" d="M1046 923l-7-2-1-4 1-2c4-3 16 4 18 5v1l-11 2zm-5-7l-1 1-1 1 1 2c2 2 7 2 14 1-5-3-10-5-13-5z"/>
  <path fill="#9FC6FF" d="M1056 922c-4-2-11-8-11-11 0-1 1-2 3-2l4 1c4 3 5 11 5 11v1h-1zm-7-12h-1l-1 1c-1 2 5 7 8 9 0-3-1-7-3-9l-3-1zM1126 926c-2-2-4-4-4-6-1-1 0-3 1-4l2-1c4 1 10 13 11 14v1h-1c-3 0-6-2-9-4zm0-8l-1-1-1 1-1 2c0 3 4 6 10 9-2-5-5-10-7-11z"/>
  <path fill="#9FC6FF" d="M1135 931c-3-4-5-13-3-15h4l3 3c1 5-3 12-3 12h-1zm1-14h-2c-2 1-1 8 1 12 1-2 3-7 2-10l-1-2z"/>
  <path fill="#F18069" d="M1118 646l2 7h-77v-7h75z"/>
  <path fill="#6A2828" d="M1108 654h3l-1-9h-3l1 9zM1050 654h3l-1-9h-3-1l1 9h1zM1079 654h3l-1-9h-3v9h1z"/>
  <path fill="#0F264C" d="M1079 480l-3-2c0 1 1 3 3 2z"/>
  <path fill="#6B1912" d="M911 478h-18l-2-11s7 4 9 1c1-2 1-1 3-1 1 1 1-2 3 0 3 1 6 8 5 11z"/>
  <path fill="#D88D6C" d="M893 928l22-2-1-28-23 2 2 28z"/>
  <path fill="url(#paint53_linear)" d="M934 924s-15-7-17-12c0 0-4-16-11-7 0 0-7 5-16 1l-1 30h66c-2-5-3-10-21-12z"/>
  <path fill="#C73E39" d="M889 936l-1 5h67v-5h-66z"/>
  <path fill="#D88D6C" d="M795 924l22 4 6-27-22-4-6 27z"/>
  <path fill="url(#paint54_linear)" d="M838 924s-15-7-17-12c0 0 3-12-5-6 0 0-13 5-19-1l-4 31h66c-2-5-3-10-21-12z"/>
  <path fill="#C73E39" d="M792 936v5h67v-5h-67z"/>
  <path fill="url(#paint55_linear)" d="M919 668s4 113 0 242c0 0-11 11-31 4 0 0 0-144-5-201 0 0-26 109-58 202 0 0-22 5-30-8 0 0 44-152 50-239h74z"/>
  <path fill="#402B2B" fill-opacity=".5" d="M919 668h-74l-2 21c44 0 67-11 76-16v-5z" style="mix-blend-mode:multiply"/>
  <path fill="#D1402C" d="M959 589c-20-35-36-47-36-47-9 4-2 38-2 38 5 11 9 20 17 30l21-21z"/>
  <path fill="url(#paint56_linear)" d="M923 542l-4 126s-26 13-77 3c0 0 0-31-7-59 0 0-13-52-6-67 0 0 41-26 94-3z"/>
  <path fill="url(#paint57_linear)" d="M883 521v13s-3 5-10 6c-8 0-12-4-12-4l-1-20c10 4 19 5 23 5z"/>
  <path fill="url(#paint58_linear)" d="M882 515l1 15c-4 1-13-1-23-5v-10h22z" style="mix-blend-mode:multiply"/>
  <path fill="#EE4D47" fill-opacity=".3" d="M831 574l15 37c4 11 4 55 25 64 0 0-22-2-29-4 0 0 0-33-7-59l-7-39 3 1z" style="mix-blend-mode:multiply"/>
  <path fill="#402B2B" d="M846 482l1 7 1 12 7 6 4 1s6-2 5-4l-5-32-7 4-6 6zM901 471c2 0-1 21-1 21l-3-8-2-10 6-3z"/>
  <path fill="url(#paint59_linear)" d="M898 475l4 27s1 22-18 24c-18 1-31-18-31-18s-2 3-5-1c-2-5 0-11 3-12 3 0 5 2 5 5l1 5 3-1-2-22s4-8 9-10c5-1 9 5 9 5h9l7-2h6z"/>
  <path fill="#893D43" d="M885 515c-6 1-7-6-7-6l15-2s1 8-8 8z"/>
  <path fill="#FFFEFF" d="M878 511v-2l14-2v2l-14 2z"/>
  <path fill="#402B2B" d="M879 468v-19c-12 1-23 3-29 10-7 9-3 28-3 28s8-1 10-3c1-3 16-7 26-7 11 1 17 0 22-5l3-4h-29z"/>
  <path fill="url(#paint60_linear)" d="M845 480l22-4c23-9 33-8 33-8l-3-12c-2-5-16-12-27-11-12 1-24 10-26 18-1 6 1 17 1 17z"/>
  <path fill="url(#paint61_linear)" d="M859 477c3-11 20-17 33-17 12 0 21 10 22 17 0 3-2 4-3 1 0-2-1-10-13-9-11 1-10 11-16 12-5 1-11-3-23-4z"/>
  <path fill="#402B2B" d="M897 480v-1h-10v2l10-1zM865 485l10-3-1-2-10 3 1 2z"/>
  <path fill="#D87C60" d="M884 491l2 5 5 3-2 3-2 1s3 1 5-1c1-3 0-4-2-5l-3-2-3-4z"/>
  <path fill="#402B2B" d="M876 493c0 2-1 4-3 4s-3-2-3-4 1-3 3-3 3 1 3 3zM897 491c0 2-2 3-3 3-2 0-3-1-3-3s1-4 3-4c1 0 3 2 3 4z"/>
  <path fill="#8C5E5E" d="M989 541H873v90h116v-90z"/>
  <path fill="#694646" d="M989 541h-42v90h42v-90z"/>
  <path fill="#A3774A" d="M975 541h-11v13h11v-13zM912 541h-11v13h11v-13z"/>
  <path fill="#F4A984" d="M989 608s-6 3-7 5c-2 2-5 18-2 20s9 0 11 0c2 1 8-3 8-6l-5-24-5-2v7z"/>
  <path fill="#fff" d="M913 606h-36v18h36v-18z"/>
  <path fill="url(#paint62_linear)" fill-rule="evenodd" d="M841 629c-14-20-15-80-15-80 18 2 31 27 31 28l3 36 48 8 3-3s11-6 20-5c0 0 4 1 3 4l1 3c1 0 2 1 1 3l1 2-1 4s2 3 0 5-6 7-7 6h-3l-5-2s-1-1 1-2h-4l-7-2-1-1c-52 4-69-4-69-4z" clip-rule="evenodd"/>
  <path fill="url(#paint63_linear)" d="M862 604l-5-28s-10-29-28-31c0 0-14 8 3 66l30-7z"/>
  <defs>
    <linearGradient id="paint0_linear" x1="892.3" x2="-93.5" y1="1119.1" y2="306.3" gradientUnits="userSpaceOnUse">
      <stop stop-color="#FFEDBA"/>
      <stop offset="1" stop-color="#EE4D47"/>
    </linearGradient>
    <linearGradient id="paint1_linear" x1="987.4" x2="-79.1" y1="1232.7" y2="322.3" gradientUnits="userSpaceOnUse">
      <stop stop-color="#FFEDBA"/>
      <stop offset="1" stop-color="#EE4D47"/>
    </linearGradient>
    <linearGradient id="paint2_linear" x1="1077" x2="1077" y1="-264" y2="1110.7" gradientUnits="userSpaceOnUse">
      <stop stop-color="#F4A984"/>
      <stop offset="1" stop-color="#F4A984" stop-opacity="0"/>
    </linearGradient>
    <linearGradient id="paint3_linear" x1="1368.3" x2="1368.3" y1="557.3" y2="905.6" gradientUnits="userSpaceOnUse">
      <stop offset=".2" stop-color="#2CA77F"/>
      <stop offset="1" stop-color="#1B8877"/>
    </linearGradient>
    <linearGradient id="paint4_linear" x1="1368.3" x2="1368.3" y1="557.3" y2="905.6" gradientUnits="userSpaceOnUse">
      <stop offset=".2" stop-color="#2CA77F"/>
      <stop offset="1" stop-color="#1B8877"/>
    </linearGradient>
    <linearGradient id="paint5_linear" x1="1368.3" x2="1368.3" y1="557.3" y2="905.6" gradientUnits="userSpaceOnUse">
      <stop offset=".2" stop-color="#2CA77F"/>
      <stop offset="1" stop-color="#1B8877"/>
    </linearGradient>
    <linearGradient id="paint6_linear" x1="1376.9" x2="1376.9" y1="571.2" y2="887.6" gradientUnits="userSpaceOnUse">
      <stop stop-color="#fff"/>
      <stop offset="1" stop-color="#fff" stop-opacity="0"/>
    </linearGradient>
    <linearGradient id="paint7_linear" x1="1515.1" x2="1515.1" y1="657" y2="898.2" gradientUnits="userSpaceOnUse">
      <stop offset=".4" stop-color="#2CA77F"/>
      <stop offset="1" stop-color="#1B8877"/>
    </linearGradient>
    <linearGradient id="paint8_linear" x1="1515.1" x2="1515.1" y1="657" y2="898.2" gradientUnits="userSpaceOnUse">
      <stop offset=".4" stop-color="#2CA77F"/>
      <stop offset="1" stop-color="#1B8877"/>
    </linearGradient>
    <linearGradient id="paint9_linear" x1="1513.9" x2="1513.9" y1="693.8" y2="890.9" gradientUnits="userSpaceOnUse">
      <stop stop-color="#fff"/>
      <stop offset="1" stop-color="#fff" stop-opacity="0"/>
    </linearGradient>
    <linearGradient id="paint10_linear" x1="1133.7" x2="1133.7" y1="593.3" y2="957.3" gradientUnits="userSpaceOnUse">
      <stop offset=".4" stop-color="#2CA77F"/>
      <stop offset="1" stop-color="#1B8877"/>
    </linearGradient>
    <linearGradient id="paint11_linear" x1="1133.7" x2="1133.7" y1="593.3" y2="957.3" gradientUnits="userSpaceOnUse">
      <stop offset=".4" stop-color="#2CA77F"/>
      <stop offset="1" stop-color="#1B8877"/>
    </linearGradient>
    <linearGradient id="paint12_linear" x1="1123.5" x2="1123.5" y1="666" y2="924.2" gradientUnits="userSpaceOnUse">
      <stop stop-color="#fff"/>
      <stop offset="1" stop-color="#fff" stop-opacity="0"/>
    </linearGradient>
    <linearGradient id="paint13_linear" x1="1349.9" x2="1349.9" y1="661.2" y2="734.7" gradientUnits="userSpaceOnUse">
      <stop stop-color="#D3D86C"/>
      <stop offset="1" stop-color="#82A637"/>
    </linearGradient>
    <linearGradient id="paint14_linear" x1="1233.4" x2="1233.4" y1="502.9" y2="637.4" gradientUnits="userSpaceOnUse">
      <stop stop-color="#D3D86C"/>
      <stop offset="1" stop-color="#82A637"/>
    </linearGradient>
    <linearGradient id="paint15_linear" x1="1558.8" x2="1558.8" y1="813.8" y2="836.4" gradientUnits="userSpaceOnUse">
      <stop stop-color="#D3D86C"/>
      <stop offset="1" stop-color="#82A637"/>
    </linearGradient>
    <linearGradient id="paint16_linear" x1="1010.8" x2="1010.8" y1="707.7" y2="892.2" gradientUnits="userSpaceOnUse">
      <stop stop-color="#D3D86C"/>
      <stop offset="1" stop-color="#82A637"/>
    </linearGradient>
    <linearGradient id="paint17_linear" x1="1010.9" x2="1010.9" y1="753" y2="892.2" gradientUnits="userSpaceOnUse">
      <stop stop-color="#084F15" stop-opacity="0"/>
      <stop offset="1" stop-color="#084F15"/>
    </linearGradient>
    <linearGradient id="paint18_linear" x1="979.6" x2="979.6" y1="761" y2="892.3" gradientUnits="userSpaceOnUse">
      <stop stop-color="#084F15" stop-opacity="0"/>
      <stop offset="1" stop-color="#084F15"/>
    </linearGradient>
    <linearGradient id="paint19_linear" x1="951" x2="951" y1="785" y2="892.2" gradientUnits="userSpaceOnUse">
      <stop stop-color="#084F15" stop-opacity="0"/>
      <stop offset="1" stop-color="#084F15"/>
    </linearGradient>
    <linearGradient id="paint20_linear" x1="925.8" x2="925.8" y1="820.8" y2="892.3" gradientUnits="userSpaceOnUse">
      <stop stop-color="#084F15" stop-opacity="0"/>
      <stop offset="1" stop-color="#084F15"/>
    </linearGradient>
    <linearGradient id="paint21_linear" x1="900.2" x2="900.2" y1="862.2" y2="892.2" gradientUnits="userSpaceOnUse">
      <stop stop-color="#084F15" stop-opacity="0"/>
      <stop offset="1" stop-color="#084F15"/>
    </linearGradient>
    <linearGradient id="paint22_linear" x1="1042" x2="1042" y1="761" y2="892.3" gradientUnits="userSpaceOnUse">
      <stop stop-color="#084F15" stop-opacity="0"/>
      <stop offset="1" stop-color="#084F15"/>
    </linearGradient>
    <linearGradient id="paint23_linear" x1="1070.6" x2="1070.6" y1="785.1" y2="892.3" gradientUnits="userSpaceOnUse">
      <stop stop-color="#084F15" stop-opacity="0"/>
      <stop offset="1" stop-color="#084F15"/>
    </linearGradient>
    <linearGradient id="paint24_linear" x1="1095.8" x2="1095.8" y1="820.8" y2="892.3" gradientUnits="userSpaceOnUse">
      <stop stop-color="#084F15" stop-opacity="0"/>
      <stop offset="1" stop-color="#084F15"/>
    </linearGradient>
    <linearGradient id="paint25_linear" x1="1164.5" x2="1164.5" y1="775" y2="892.3" gradientUnits="userSpaceOnUse">
      <stop stop-color="#D3D86C"/>
      <stop offset="1" stop-color="#82A637"/>
    </linearGradient>
    <linearGradient id="paint26_linear" x1="1164.6" x2="1164.6" y1="803.9" y2="892.3" gradientUnits="userSpaceOnUse">
      <stop stop-color="#084F15" stop-opacity="0"/>
      <stop offset="1" stop-color="#084F15"/>
    </linearGradient>
    <linearGradient id="paint27_linear" x1="1144.9" x2="1144.9" y1="808.7" y2="892.2" gradientUnits="userSpaceOnUse">
      <stop stop-color="#084F15" stop-opacity="0"/>
      <stop offset="1" stop-color="#084F15"/>
    </linearGradient>
    <linearGradient id="paint28_linear" x1="1126.7" x2="1126.7" y1="824.2" y2="892.3" gradientUnits="userSpaceOnUse">
      <stop stop-color="#084F15" stop-opacity="0"/>
      <stop offset="1" stop-color="#084F15"/>
    </linearGradient>
    <linearGradient id="paint29_linear" x1="1110.6" x2="1110.6" y1="846.8" y2="892.2" gradientUnits="userSpaceOnUse">
      <stop stop-color="#084F15" stop-opacity="0"/>
      <stop offset="1" stop-color="#084F15"/>
    </linearGradient>
    <linearGradient id="paint30_linear" x1="1094.4" x2="1094.4" y1="873.3" y2="892.3" gradientUnits="userSpaceOnUse">
      <stop stop-color="#084F15" stop-opacity="0"/>
      <stop offset="1" stop-color="#084F15"/>
    </linearGradient>
    <linearGradient id="paint31_linear" x1="1184.5" x2="1184.5" y1="809" y2="892.3" gradientUnits="userSpaceOnUse">
      <stop stop-color="#084F15" stop-opacity="0"/>
      <stop offset="1" stop-color="#084F15"/>
    </linearGradient>
    <linearGradient id="paint32_linear" x1="1202.6" x2="1202.6" y1="824.2" y2="892.3" gradientUnits="userSpaceOnUse">
      <stop stop-color="#084F15" stop-opacity="0"/>
      <stop offset="1" stop-color="#084F15"/>
    </linearGradient>
    <linearGradient id="paint33_linear" x1="1218.7" x2="1218.7" y1="846.9" y2="892.3" gradientUnits="userSpaceOnUse">
      <stop stop-color="#084F15" stop-opacity="0"/>
      <stop offset="1" stop-color="#084F15"/>
    </linearGradient>
    <linearGradient id="paint34_linear" x1="1234.9" x2="1234.9" y1="873.3" y2="892.3" gradientUnits="userSpaceOnUse">
      <stop stop-color="#084F15" stop-opacity="0"/>
      <stop offset="1" stop-color="#084F15"/>
    </linearGradient>
    <linearGradient id="paint35_linear" x1="398.3" x2="398.3" y1="533.9" y2="1117.8" gradientUnits="userSpaceOnUse">
      <stop offset=".3" stop-color="#EEEF99"/>
      <stop offset=".8" stop-color="#B9D079"/>
    </linearGradient>
    <linearGradient id="paint36_linear" x1="398.3" x2="398.3" y1="533.9" y2="1117.8" gradientUnits="userSpaceOnUse">
      <stop offset=".3" stop-color="#EEEF99"/>
      <stop offset=".8" stop-color="#B9D079"/>
    </linearGradient>
    <linearGradient id="paint37_linear" x1="892.4" x2="892.4" y1="888.8" y2="1152.7" gradientUnits="userSpaceOnUse">
      <stop stop-color="#fff"/>
      <stop offset="1" stop-color="#fff" stop-opacity="0"/>
    </linearGradient>
    <linearGradient id="paint38_linear" x1="797.9" x2="797.9" y1="810.3" y2="1072" gradientUnits="userSpaceOnUse">
      <stop offset=".2" stop-color="#82A637"/>
      <stop offset=".9" stop-color="#1B8877"/>
    </linearGradient>
    <linearGradient id="paint39_linear" x1="70.5" x2="70.6" y1="-120.1" y2="322.8" gradientUnits="userSpaceOnUse">
      <stop stop-color="#fff"/>
      <stop offset="1" stop-color="#fff" stop-opacity="0"/>
    </linearGradient>
    <linearGradient id="paint40_linear" x1="108.1" x2="108.1" y1="396.5" y2="601" gradientUnits="userSpaceOnUse">
      <stop stop-color="#D3D86C"/>
      <stop offset="1" stop-color="#82A637"/>
    </linearGradient>
    <linearGradient id="paint41_linear" x1="145.7" x2="145.7" y1="805.1" y2="998.2" gradientUnits="userSpaceOnUse">
      <stop stop-color="#D3D86C"/>
      <stop offset="1" stop-color="#82A637"/>
    </linearGradient>
    <linearGradient id="paint42_linear" x1="261.6" x2="261.6" y1="852.2" y2="1190.2" gradientUnits="userSpaceOnUse">
      <stop stop-color="#084F15" stop-opacity="0"/>
      <stop offset="1" stop-color="#084F15"/>
    </linearGradient>
    <linearGradient id="paint43_linear" x1="29.6" x2="29.6" y1="856" y2="1024" gradientUnits="userSpaceOnUse">
      <stop offset=".4" stop-color="#2CA77F"/>
      <stop offset="1" stop-color="#1B8877"/>
    </linearGradient>
    <linearGradient id="paint44_linear" x1="1111" x2="1111" y1="464" y2="-228" gradientUnits="userSpaceOnUse">
      <stop stop-color="#FFEDBA" stop-opacity="0"/>
      <stop offset="1" stop-color="#EB2A24"/>
    </linearGradient>
    <linearGradient id="paint45_linear" x1="974.6" x2="974.7" y1="53.4" y2="405.4" gradientUnits="userSpaceOnUse">
      <stop stop-color="#fff"/>
      <stop offset="1" stop-color="#fff" stop-opacity="0"/>
    </linearGradient>
    <linearGradient id="paint46_linear" x1="736.5" x2="736.6" y1="381.6" y2="639" gradientUnits="userSpaceOnUse">
      <stop stop-color="#fff"/>
      <stop offset="1" stop-color="#fff" stop-opacity="0"/>
    </linearGradient>
    <linearGradient id="paint47_linear" x1="1053.2" x2="1047.9" y1="635.6" y2="580.6" gradientUnits="userSpaceOnUse">
      <stop stop-color="#FFB3B6"/>
      <stop offset="1" stop-color="#FFC8C1"/>
    </linearGradient>
    <linearGradient id="paint48_linear" x1="1058.7" x2="1058.7" y1="599.3" y2="899.2" gradientUnits="userSpaceOnUse">
      <stop stop-color="#F4A984"/>
      <stop offset="1" stop-color="#EE4D47"/>
    </linearGradient>
    <linearGradient id="paint49_linear" x1="1084.2" x2="1084.4" y1="543.1" y2="479.5" gradientUnits="userSpaceOnUse">
      <stop stop-color="#FFB3B6"/>
      <stop offset="1" stop-color="#FFC8C1"/>
    </linearGradient>
    <linearGradient id="paint50_linear" x1="1110.2" x2="1103.9" y1="511.1" y2="466.2" gradientUnits="userSpaceOnUse">
      <stop stop-color="#FFB3B6"/>
      <stop offset="1" stop-color="#FFC8C1"/>
    </linearGradient>
    <linearGradient id="paint51_linear" x1="1114.3" x2="1114.3" y1="601.1" y2="893.8" gradientUnits="userSpaceOnUse">
      <stop stop-color="#F4A984"/>
      <stop offset="1" stop-color="#EE4D47"/>
    </linearGradient>
    <linearGradient id="paint52_linear" x1="1108.9" x2="1107.5" y1="501" y2="490.4" gradientUnits="userSpaceOnUse">
      <stop stop-color="#FFB3B6"/>
      <stop offset="1" stop-color="#FFC8C1"/>
    </linearGradient>
    <linearGradient id="paint53_linear" x1="921.8" x2="921.8" y1="908.1" y2="936.7" gradientUnits="userSpaceOnUse">
      <stop stop-color="#F4A984"/>
      <stop offset="1" stop-color="#EE4D47"/>
    </linearGradient>
    <linearGradient id="paint54_linear" x1="825.9" x2="825.9" y1="897.8" y2="936.9" gradientUnits="userSpaceOnUse">
      <stop stop-color="#F4A984"/>
      <stop offset="1" stop-color="#EE4D47"/>
    </linearGradient>
    <linearGradient id="paint55_linear" x1="857.9" x2="857.9" y1="597.9" y2="916.1" gradientUnits="userSpaceOnUse">
      <stop stop-color="#822626"/>
      <stop offset=".9" stop-color="#402B2B"/>
    </linearGradient>
    <linearGradient id="paint56_linear" x1="874.7" x2="874.7" y1="499.4" y2="678.6" gradientUnits="userSpaceOnUse">
      <stop stop-color="#F4A984"/>
      <stop offset="1" stop-color="#EE4D47"/>
    </linearGradient>
    <linearGradient id="paint57_linear" x1="864.1" x2="883.2" y1="533.4" y2="541.6" gradientUnits="userSpaceOnUse">
      <stop stop-color="#FFB3B6"/>
      <stop offset="1" stop-color="#FFC8C1"/>
    </linearGradient>
    <linearGradient id="paint58_linear" x1="863.8" x2="883" y1="523.9" y2="532" gradientUnits="userSpaceOnUse">
      <stop stop-color="#FFB3B6" stop-opacity=".3"/>
      <stop offset="1" stop-color="#FFC8C1"/>
    </linearGradient>
    <linearGradient id="paint59_linear" x1="904" x2="899.9" y1="519.2" y2="482.7" gradientUnits="userSpaceOnUse">
      <stop stop-color="#FFB3B6"/>
      <stop offset="1" stop-color="#FFC8C1"/>
    </linearGradient>
    <linearGradient id="paint60_linear" x1="871.6" x2="871.6" y1="425.8" y2="480.6" gradientUnits="userSpaceOnUse">
      <stop stop-color="#F4A984"/>
      <stop offset="1" stop-color="#EE4D47"/>
    </linearGradient>
    <linearGradient id="paint61_linear" x1="870.2" x2="870.2" y1="454.6" y2="511.6" gradientUnits="userSpaceOnUse">
      <stop stop-color="#F4A984"/>
      <stop offset="1" stop-color="#EE4D47"/>
    </linearGradient>
    <linearGradient id="paint62_linear" x1="844.1" x2="941.9" y1="601.2" y2="633.8" gradientUnits="userSpaceOnUse">
      <stop stop-color="#FFB3B6"/>
      <stop offset="1" stop-color="#FFC8C1"/>
    </linearGradient>
    <linearGradient id="paint63_linear" x1="842.9" x2="842.9" y1="525.7" y2="593.6" gradientUnits="userSpaceOnUse">
      <stop stop-color="#F4A984"/>
      <stop offset="1" stop-color="#EE4D47"/>
    </linearGradient>
    <clipPath id="clip0">
      <path fill="#fff" d="M0 0h157v140H0z" transform="translate(1480 764)"/>
    </clipPath>
  </defs>
</svg>
