<svg xmlns="http://www.w3.org/2000/svg" fill="none" viewBox="0 0 212 50">
  <defs/>
  <path fill="#fff" d="M80 41l1-1 2-1V21h-5l-1 2-1 2v-5h18v5l-1-2-1-2h-5v18l2 1 1 1H80zm16 0v-1h1V22v-1-1h-1 9l6 1 2 4-1 3-4 2 5 9v1l1 1h1-6l-5-10h-2v9h1l1 1h-8zm6-11h2l3-1 1-4-1-3-3-1h-2v9zm14 11l1-1h1v-1l7-19h2l7 19v1l1 1h1-8l1-1v-1l-2-5h-7l-1 5v1l1 1h-4zm5-8h6l-3-10-3 10zm16 8v-1h1l1-1v-4-5-4a225 225 0 00-1-6h-1 15l1 5h-1l-2-3v-1h-7v9h5v-1l1-2v6l-1-1v-1h-5v4a246 246 0 002 5l1 1h-9zm17 0l1-1 1-1V22l-1-1v-1h-1 8-1v1l-1 1v17l1 1 1 1h-8zm20 1l-6-2-4-3-1-7 1-4a10 10 0 016-6 13 13 0 0110 1v4l-1-3-1-1-1-1h-1-1l-4 1-2 3-1 6 1 7 2 3 4 1h1l1-1h1l1-1 1-4h1v5a15 15 0 01-7 2zm18 0l-4-1-3-2-2-4-1-5 1-4a10 10 0 015-6 10 10 0 018 0l3 2 2 4 1 4-1 5a10 10 0 01-5 6l-4 1zm0-1l3-1 1-3 1-7-1-6-1-3-3-1-3 1-1 3-1 6 1 7 1 3 3 1zm14 0h-1l-1-2 1-2 1-1 2 1 1 2-1 2h-2z"/>
  <path fill="#fff" d="M0 17h16V0L0 17z" opacity=".4"/>
  <path fill="#fff" d="M47 17H16v33l31-33z"/>
</svg>
